<svg width="153" height="142" viewBox="0 0 153 142" fill="none" xmlns="http://www.w3.org/2000/svg">
<path opacity="0.2" fill-rule="evenodd" clip-rule="evenodd" d="M152.08 4.17647C152.08 6.48307 149.716 8.35294 146.799 8.35294C143.883 8.35294 141.519 6.48307 141.519 4.17647C141.519 1.86987 143.883 0 146.799 0C149.716 0 152.08 1.86987 152.08 4.17647ZM5.98113 30.6275C8.89757 30.6275 11.2618 28.7576 11.2618 26.451C11.2618 24.1444 8.89757 22.2745 5.98113 22.2745C3.06468 22.2745 0.700439 24.1444 0.700439 26.451C0.700439 28.7576 3.06468 30.6275 5.98113 30.6275ZM152.08 26.451C152.08 28.7576 149.716 30.6275 146.799 30.6275C143.883 30.6275 141.519 28.7576 141.519 26.451C141.519 24.1444 143.883 22.2745 146.799 22.2745C149.716 22.2745 152.08 24.1444 152.08 26.451ZM152.08 48.7255C152.08 51.0321 149.716 52.902 146.799 52.902C143.883 52.902 141.519 51.0321 141.519 48.7255C141.519 46.4189 143.883 44.549 146.799 44.549C149.716 44.549 152.08 46.4189 152.08 48.7255ZM5.98113 75.1765C8.89757 75.1765 11.2618 73.3066 11.2618 71C11.2618 68.6934 8.89757 66.8235 5.98113 66.8235C3.06468 66.8235 0.700439 68.6934 0.700439 71C0.700439 73.3066 3.06468 75.1765 5.98113 75.1765ZM152.08 71C152.08 73.3066 149.716 75.1765 146.799 75.1765C143.883 75.1765 141.519 73.3066 141.519 71C141.519 68.6934 143.883 66.8235 146.799 66.8235C149.716 66.8235 152.08 68.6934 152.08 71ZM152.08 93.2745C152.08 95.5811 149.716 97.451 146.799 97.451C143.883 97.451 141.519 95.5811 141.519 93.2745C141.519 90.9679 143.883 89.098 146.799 89.098C149.716 89.098 152.08 90.9679 152.08 93.2745ZM5.98113 119.725C8.89757 119.725 11.2618 117.856 11.2618 115.549C11.2618 113.242 8.89757 111.373 5.98113 111.373C3.06468 111.373 0.700439 113.242 0.700439 115.549C0.700439 117.856 3.06468 119.725 5.98113 119.725ZM152.08 115.549C152.08 117.856 149.716 119.726 146.799 119.726C143.883 119.726 141.519 117.856 141.519 115.549C141.519 113.242 143.883 111.373 146.799 111.373C149.716 111.373 152.08 113.242 152.08 115.549ZM5.98113 142C8.89757 142 11.2618 140.13 11.2618 137.824C11.2618 135.517 8.89757 133.647 5.98113 133.647C3.06468 133.647 0.700439 135.517 0.700439 137.824C0.700439 140.13 3.06468 142 5.98113 142ZM39.4255 137.824C39.4255 140.13 37.0612 142 34.1448 142C31.2284 142 28.8641 140.13 28.8641 137.824C28.8641 135.517 31.2284 133.647 34.1448 133.647C37.0612 133.647 39.4255 135.517 39.4255 137.824ZM62.3085 142C65.2249 142 67.5891 140.13 67.5891 137.824C67.5891 135.517 65.2249 133.647 62.3085 133.647C59.392 133.647 57.0278 135.517 57.0278 137.824C57.0278 140.13 59.392 142 62.3085 142ZM95.7529 137.824C95.7529 140.13 93.3886 142 90.4722 142C87.5557 142 85.1915 140.13 85.1915 137.824C85.1915 135.517 87.5557 133.647 90.4722 133.647C93.3886 133.647 95.7529 135.517 95.7529 137.824ZM118.636 142C121.552 142 123.917 140.13 123.917 137.824C123.917 135.517 121.552 133.647 118.636 133.647C115.719 133.647 113.355 135.517 113.355 137.824C113.355 140.13 115.719 142 118.636 142ZM146.799 142C149.716 142 152.08 140.13 152.08 137.824C152.08 135.517 149.716 133.647 146.799 133.647C143.883 133.647 141.519 135.517 141.519 137.824C141.519 140.13 143.883 142 146.799 142ZM118.636 119.726C121.552 119.726 123.917 117.856 123.917 115.549C123.917 113.242 121.552 111.373 118.636 111.373C115.719 111.373 113.355 113.242 113.355 115.549C113.355 117.856 115.719 119.726 118.636 119.726ZM95.7529 115.549C95.7529 117.856 93.3886 119.726 90.4722 119.726C87.5557 119.726 85.1915 117.856 85.1915 115.549C85.1915 113.242 87.5557 111.373 90.4722 111.373C93.3886 111.373 95.7529 113.242 95.7529 115.549ZM62.3085 119.726C65.2249 119.726 67.5891 117.856 67.5891 115.549C67.5891 113.242 65.2249 111.373 62.3085 111.373C59.392 111.373 57.0278 113.242 57.0278 115.549C57.0278 117.856 59.392 119.726 62.3085 119.726ZM39.4255 115.549C39.4255 117.856 37.0612 119.726 34.1448 119.726C31.2284 119.726 28.8641 117.856 28.8641 115.549C28.8641 113.242 31.2284 111.373 34.1448 111.373C37.0612 111.373 39.4255 113.242 39.4255 115.549ZM118.636 97.451C121.552 97.451 123.917 95.5811 123.917 93.2745C123.917 90.9679 121.552 89.098 118.636 89.098C115.719 89.098 113.355 90.9679 113.355 93.2745C113.355 95.5811 115.719 97.451 118.636 97.451ZM95.7529 93.2745C95.7529 95.5811 93.3886 97.451 90.4722 97.451C87.5557 97.451 85.1915 95.5811 85.1915 93.2745C85.1915 90.9679 87.5557 89.098 90.4722 89.098C93.3886 89.098 95.7529 90.9679 95.7529 93.2745ZM62.3085 97.451C65.2249 97.451 67.5891 95.5811 67.5891 93.2745C67.5891 90.9679 65.2249 89.098 62.3085 89.098C59.392 89.098 57.0278 90.9679 57.0278 93.2745C57.0278 95.5811 59.392 97.451 62.3085 97.451ZM39.4255 93.2745C39.4255 95.5811 37.0612 97.451 34.1448 97.451C31.2284 97.451 28.8641 95.5811 28.8641 93.2745C28.8641 90.9679 31.2284 89.098 34.1448 89.098C37.0612 89.098 39.4255 90.9679 39.4255 93.2745ZM5.98113 97.451C8.89757 97.451 11.2618 95.5811 11.2618 93.2745C11.2618 90.9679 8.89757 89.098 5.98113 89.098C3.06468 89.098 0.700439 90.9679 0.700439 93.2745C0.700439 95.5811 3.06468 97.451 5.98113 97.451ZM118.636 75.1765C121.552 75.1765 123.917 73.3066 123.917 71C123.917 68.6934 121.552 66.8235 118.636 66.8235C115.719 66.8235 113.355 68.6934 113.355 71C113.355 73.3066 115.719 75.1765 118.636 75.1765ZM95.7529 71C95.7529 73.3066 93.3886 75.1765 90.4722 75.1765C87.5557 75.1765 85.1915 73.3066 85.1915 71C85.1915 68.6934 87.5557 66.8235 90.4722 66.8235C93.3886 66.8235 95.7529 68.6934 95.7529 71ZM62.3085 75.1765C65.2249 75.1765 67.5891 73.3066 67.5891 71C67.5891 68.6934 65.2249 66.8235 62.3085 66.8235C59.392 66.8235 57.0278 68.6934 57.0278 71C57.0278 73.3066 59.392 75.1765 62.3085 75.1765ZM39.4255 71C39.4255 73.3066 37.0612 75.1765 34.1448 75.1765C31.2284 75.1765 28.8641 73.3066 28.8641 71C28.8641 68.6934 31.2284 66.8235 34.1448 66.8235C37.0612 66.8235 39.4255 68.6934 39.4255 71ZM118.636 52.902C121.552 52.902 123.917 51.0321 123.917 48.7255C123.917 46.4189 121.552 44.549 118.636 44.549C115.719 44.549 113.355 46.4189 113.355 48.7255C113.355 51.0321 115.719 52.902 118.636 52.902ZM95.7529 48.7255C95.7529 51.0321 93.3886 52.902 90.4722 52.902C87.5557 52.902 85.1915 51.0321 85.1915 48.7255C85.1915 46.4189 87.5557 44.549 90.4722 44.549C93.3886 44.549 95.7529 46.4189 95.7529 48.7255ZM62.3085 52.902C65.2249 52.902 67.5891 51.0321 67.5891 48.7255C67.5891 46.4189 65.2249 44.549 62.3085 44.549C59.392 44.549 57.0278 46.4189 57.0278 48.7255C57.0278 51.0321 59.392 52.902 62.3085 52.902ZM39.4255 48.7255C39.4255 51.0321 37.0612 52.902 34.1448 52.902C31.2284 52.902 28.8641 51.0321 28.8641 48.7255C28.8641 46.4189 31.2284 44.549 34.1448 44.549C37.0612 44.549 39.4255 46.4189 39.4255 48.7255ZM5.98113 52.902C8.89757 52.902 11.2618 51.0321 11.2618 48.7255C11.2618 46.4189 8.89757 44.549 5.98113 44.549C3.06468 44.549 0.700439 46.4189 0.700439 48.7255C0.700439 51.0321 3.06468 52.902 5.98113 52.902ZM118.636 30.6275C121.552 30.6275 123.917 28.7576 123.917 26.451C123.917 24.1444 121.552 22.2745 118.636 22.2745C115.719 22.2745 113.355 24.1444 113.355 26.451C113.355 28.7576 115.719 30.6275 118.636 30.6275ZM95.7529 26.451C95.7529 28.7576 93.3886 30.6275 90.4722 30.6275C87.5557 30.6275 85.1915 28.7576 85.1915 26.451C85.1915 24.1444 87.5557 22.2745 90.4722 22.2745C93.3886 22.2745 95.7529 24.1444 95.7529 26.451ZM62.3085 30.6275C65.2249 30.6275 67.5891 28.7576 67.5891 26.451C67.5891 24.1444 65.2249 22.2745 62.3085 22.2745C59.392 22.2745 57.0278 24.1444 57.0278 26.451C57.0278 28.7576 59.392 30.6275 62.3085 30.6275ZM39.4255 26.451C39.4255 28.7576 37.0612 30.6275 34.1448 30.6275C31.2284 30.6275 28.8641 28.7576 28.8641 26.451C28.8641 24.1444 31.2284 22.2745 34.1448 22.2745C37.0612 22.2745 39.4255 24.1444 39.4255 26.451ZM118.636 8.35294C121.552 8.35294 123.917 6.48307 123.917 4.17647C123.917 1.86987 121.552 0 118.636 0C115.719 0 113.355 1.86987 113.355 4.17647C113.355 6.48307 115.719 8.35294 118.636 8.35294ZM95.7529 4.17647C95.7529 6.48307 93.3886 8.35294 90.4722 8.35294C87.5557 8.35294 85.1915 6.48307 85.1915 4.17647C85.1915 1.86987 87.5557 0 90.4722 0C93.3886 0 95.7529 1.86987 95.7529 4.17647ZM62.3085 8.35294C65.2249 8.35294 67.5891 6.48307 67.5891 4.17647C67.5891 1.86987 65.2249 0 62.3085 0C59.392 0 57.0278 1.86987 57.0278 4.17647C57.0278 6.48307 59.392 8.35294 62.3085 8.35294ZM39.4255 4.17647C39.4255 6.48307 37.0612 8.35294 34.1448 8.35294C31.2284 8.35294 28.8641 6.48307 28.8641 4.17647C28.8641 1.86987 31.2284 0 34.1448 0C37.0612 0 39.4255 1.86987 39.4255 4.17647ZM5.98113 8.35294C8.89757 8.35294 11.2618 6.48307 11.2618 4.17647C11.2618 1.86987 8.89757 0 5.98113 0C3.06468 0 0.700439 1.86987 0.700439 4.17647C0.700439 6.48307 3.06468 8.35294 5.98113 8.35294Z" fill="#7282A0"/>
</svg>
