<svg width="81" height="81" viewBox="0 0 81 81" fill="none" xmlns="http://www.w3.org/2000/svg">
<g opacity="0.06">
<rect x="0.113983" y="0.93103" width="80" height="80" rx="16" fill="#1565D8"/>
</g>
<path fill-rule="evenodd" clip-rule="evenodd" d="M40.4896 28.5303H30.6894V25.5541H40.4896L39.0617 24.1262C38.4806 23.545 38.4806 22.6028 39.0617 22.0217C39.6429 21.4405 40.5851 21.4405 41.1662 22.0217L45.1345 25.9899C45.7156 26.5711 45.7156 27.5133 45.1345 28.0944L41.1662 32.0627C40.5851 32.6438 39.6429 32.6438 39.0617 32.0627C38.4806 31.4815 38.4806 30.5393 39.0617 29.9582L40.4896 28.5303ZM56.9189 39.8788L55.491 41.3067V31.5065H52.5148V41.3067L51.0869 39.8788C50.5057 39.2977 49.5635 39.2977 48.9824 39.8788C48.4012 40.46 48.4012 41.4022 48.9824 41.9833L52.9506 45.9516C53.2412 46.2421 53.622 46.3874 54.0029 46.3874C54.3837 46.3874 54.7645 46.2421 55.0551 45.9516L59.0234 41.9833C59.6045 41.4022 59.6045 40.46 59.0234 39.8788C58.4422 39.2977 57.5 39.2977 56.9189 39.8788ZM41.1662 57.736L39.7383 56.308H49.5386V53.3318H39.7383L41.1662 51.9039C41.7474 51.3228 41.7474 50.3806 41.1662 49.7994C40.5851 49.2183 39.6429 49.2183 39.0617 49.7994L35.0935 53.7677C34.5123 54.3488 34.5123 55.291 35.0935 55.8722L39.0617 59.8404C39.6429 60.4216 40.5851 60.4216 41.1662 59.8404C41.7474 59.2593 41.7474 58.3171 41.1662 57.736ZM23.3091 41.9833L24.737 40.5554V50.3557H27.7132V40.5554L29.1411 41.9833C29.7222 42.5644 30.6644 42.5644 31.2456 41.9833C31.8267 41.4022 31.8267 40.4599 31.2456 39.8788L27.2773 35.9106C26.6962 35.3294 25.754 35.3294 25.1728 35.9106L21.2046 39.8788C20.6235 40.4599 20.6235 41.4022 21.2046 41.9833C21.7857 42.5644 22.7279 42.5644 23.3091 41.9833Z" fill="#B4CCEF"/>
<path fill-rule="evenodd" clip-rule="evenodd" d="M33.1695 31.0104V23.0739C33.1695 21.4302 31.8371 20.0977 30.1934 20.0977H22.2568C20.6131 20.0977 19.2807 21.4302 19.2807 23.0739V31.0104C19.2807 32.6541 20.6131 33.9866 22.2568 33.9866H30.1934C31.8371 33.9866 33.1695 32.6541 33.1695 31.0104ZM30.1934 47.8755H22.2568C20.6131 47.8755 19.2807 49.208 19.2807 50.8517V58.7882C19.2807 60.4319 20.6131 61.7644 22.2568 61.7644H30.1934C31.8371 61.7644 33.1695 60.4319 33.1695 58.7882V50.8517C33.1695 49.208 31.8371 47.8755 30.1934 47.8755ZM57.9711 33.9866H50.0346C48.3909 33.9866 47.0584 32.6541 47.0584 31.0104V23.0739C47.0584 21.4302 48.3909 20.0977 50.0346 20.0977H57.9711C59.6148 20.0977 60.9473 21.4302 60.9473 23.0739V31.0104C60.9473 32.6541 59.6148 33.9866 57.9711 33.9866ZM47.0584 50.8517V58.7882C47.0584 60.4319 48.3909 61.7644 50.0346 61.7644H57.9711C59.6148 61.7644 60.9473 60.4319 60.9473 58.7882V50.8517C60.9473 49.208 59.6148 47.8755 57.9711 47.8755H50.0346C48.3909 47.8755 47.0584 49.208 47.0584 50.8517Z" fill="#1565D8"/>
</svg>
