<svg width="81" height="81" viewBox="0 0 81 81" fill="none" xmlns="http://www.w3.org/2000/svg">
<g opacity="0.06">
<rect x="0.405151" y="0.0494995" width="80" height="80" rx="16" fill="#1565D8"/>
</g>
<path d="M47.3496 48.978V57.9066C47.3496 59.5503 46.0171 60.8828 44.3734 60.8828H22.548C20.9043 60.8828 19.5718 59.5503 19.5718 57.9066V36.0812C19.5718 34.4375 20.9043 33.105 22.548 33.105H31.4766V44.0177C31.4766 46.7572 33.6974 48.978 36.4369 48.978H47.3496Z" fill="#B4CCEF"/>
<path fill-rule="evenodd" clip-rule="evenodd" d="M36.4369 19.2161H58.2623C59.906 19.2161 61.2385 20.5486 61.2385 22.1923V44.0177C61.2385 45.6614 59.906 46.9938 58.2623 46.9938H36.4369C34.7932 46.9938 33.4608 45.6614 33.4608 44.0177V22.1923C33.4608 20.5486 34.7932 19.2161 36.4369 19.2161Z" fill="#1565D8"/>
</svg>

