<svg width="81" height="81" viewBox="0 0 81 81" fill="none" xmlns="http://www.w3.org/2000/svg">
<g opacity="0.06">
<rect x="0.405151" y="0.93103" width="80" height="80" rx="16" fill="#1565D8"/>
</g>
<path fill-rule="evenodd" clip-rule="evenodd" d="M22.548 20.0977H46.3575C48.0013 20.0977 49.3337 21.4302 49.3337 23.0739V46.8834C49.3337 48.5271 48.0013 49.8596 46.3575 49.8596H22.548C20.9043 49.8596 19.5718 48.5271 19.5718 46.8834V23.0739C19.5718 21.4302 20.9043 20.0977 22.548 20.0977ZM57.2702 32.0025H58.2623C59.906 32.0025 61.2385 33.335 61.2385 34.9787V58.7882C61.2385 60.4319 59.906 61.7644 58.2623 61.7644H34.4528C32.809 61.7644 31.4766 60.4319 31.4766 58.7882V57.7961H52.3099C55.0494 57.7961 57.2702 55.5753 57.2702 52.8358V32.0025Z" fill="#1565D8"/>
<path d="M51.3179 26.05H52.3099C53.9536 26.05 55.2861 27.3825 55.2861 29.0262V52.8358C55.2861 54.4795 53.9536 55.812 52.3099 55.812H28.5004C26.8567 55.812 25.5242 54.4795 25.5242 52.8358V51.8437H46.3576C49.0971 51.8437 51.3179 49.6229 51.3179 46.8834V26.05Z" fill="#B4CCEF"/>
</svg>