<svg width="80" height="80" viewBox="0 0 80 80" fill="none" xmlns="http://www.w3.org/2000/svg">
<g opacity="0.06">
<rect width="80" height="80" rx="16" fill="#1565D8"/>
</g>
<path fill-rule="evenodd" clip-rule="evenodd" d="M30.226 33.7403C32.9189 29.9258 34.5998 25.5487 35.2742 20.5934C35.3384 20.1214 35.6737 19.7289 36.1338 19.5869C40.7713 18.1564 43.4079 20.4296 43.3643 25.6131C43.3559 26.6193 43.3093 27.5136 43.2102 28.8815C42.9886 31.9367 43.0062 32.7705 43.3494 33.3315C43.6793 33.8709 44.7502 34.055 47.2831 33.5756C48.0823 33.4244 48.8841 33.2529 49.7721 33.047C50.1641 32.9561 52.9876 32.2694 53.7094 32.1141C55.0862 31.8178 56.0741 31.6923 56.9427 31.7454C59.2959 31.8893 60.5447 33.3996 60.7605 36.293C61.1405 41.3887 59.9663 51.6238 58.7949 55.3938C57.5979 59.2463 55.5104 60.7005 50.4995 60.7883C47.2779 60.8448 42.3228 60.8448 35.6114 60.7882C33.8981 60.7484 32.3454 60.4177 30.9644 59.7995C31.352 58.9993 31.5691 58.1031 31.5691 57.1568V37.549C31.5691 36.1096 31.0668 34.7861 30.226 33.7403Z" fill="#1565D8"/>
<path d="M22.8874 33.8726C20.8325 33.8726 19.1667 35.5186 19.1667 37.549V57.1569C19.1667 59.1873 20.8325 60.8333 22.8874 60.8333H25.3679C27.4228 60.8333 29.0887 59.1873 29.0887 57.1569V37.549C29.0887 35.5186 27.4228 33.8726 25.3679 33.8726H22.8874Z" fill="#B4CCEF"/>
</svg>
