<svg width="114" height="94" viewBox="0 0 114 94" fill="none" xmlns="http://www.w3.org/2000/svg">
<path d="M56.9997 0.333252C25.2197 0.333252 0.333038 14.9999 0.333038 33.6666V60.3333C0.333038 75.5533 17.6197 88.7066 42.4597 92.5266C43.8598 93.265 45.4169 93.656 46.9997 93.6666H66.9997C68.5826 93.656 70.1396 93.265 71.5397 92.5266C96.3797 88.7066 113.666 75.5533 113.666 60.3333V33.6666C113.666 14.9999 88.7797 0.333252 56.9997 0.333252ZM6.99971 60.3333V49.5866C15.6008 57.9468 26.6007 63.4083 38.4597 65.2066C37.5135 66.7499 37.0085 68.523 36.9997 70.3333V83.6666C36.9997 84.0133 37.0664 84.3333 37.0997 84.6799C19.3064 80.4399 6.99971 70.7866 6.99971 60.3333ZM70.3331 83.6666C70.2985 84.5396 69.9362 85.3675 69.3185 85.9853C68.7007 86.6031 67.8727 86.9654 66.9997 86.9999H60.333V80.3333H63.6664C64.5504 80.3333 65.3983 79.9821 66.0234 79.357C66.6485 78.7318 66.9997 77.884 66.9997 76.9999C66.9997 76.1159 66.6485 75.268 66.0234 74.6429C65.3983 74.0178 64.5504 73.6666 63.6664 73.6666H60.333V66.9999H66.9997C67.8838 66.9999 68.7316 67.3511 69.3567 67.9762C69.9819 68.6014 70.3331 69.4492 70.3331 70.3333V83.6666ZM43.6664 83.6666V70.3333C43.6664 69.4492 44.0176 68.6014 44.6427 67.9762C45.2678 67.3511 46.1157 66.9999 46.9997 66.9999H53.6664V73.6666C52.7823 73.6666 51.9345 74.0178 51.3094 74.6429C50.6842 75.268 50.333 76.1159 50.333 76.9999C50.333 77.884 50.6842 78.7318 51.3094 79.357C51.9345 79.9821 52.7823 80.3333 53.6664 80.3333V86.9999H46.9997C46.1257 86.9685 45.296 86.6072 44.6776 85.9888C44.0591 85.3703 43.6978 84.5406 43.6664 83.6666ZM76.2264 54.4333C76.8931 46.3599 68.4264 41.4533 60.333 40.5199V33.8533C76.0064 35.2199 86.5864 45.8266 76.2264 54.4333ZM43.6664 53.6666C43.6664 50.5199 49.3664 46.9999 56.9997 46.9999C64.2531 46.9999 69.6664 50.5199 69.6664 53.6666C69.6664 56.8133 64.2531 60.3333 56.9997 60.3333C51.573 60.3333 43.6664 57.8066 43.6664 53.6666ZM53.6664 40.5533C44.1064 41.5866 36.9997 46.9466 36.9997 53.6533C27.6664 44.6533 39.313 35.1066 53.6664 33.8666V40.5533ZM85.7197 52.5533C86.5175 50.8077 86.9529 48.9185 86.9997 46.9999C86.9997 35.7799 73.8197 26.9999 56.9997 26.9999C40.1797 26.9999 26.9997 35.7799 26.9997 46.9999C27.0438 48.9253 27.4793 50.8216 28.2797 52.5733C26.0614 51.331 24.1787 49.5675 22.7942 47.435C21.4097 45.3026 20.565 42.8652 20.333 40.3333C20.333 29.4933 37.1264 20.3333 56.9997 20.3333C76.8731 20.3333 93.6664 29.4933 93.6664 40.3333C93.4344 42.8652 92.5897 45.3026 91.2052 47.435C89.8208 49.5675 87.9381 51.331 85.7197 52.5733V52.5533ZM107 60.3333C107 70.7866 94.6931 80.4399 76.8997 84.6799C76.9331 84.3399 76.9997 84.0133 76.9997 83.6666V70.3333C76.9909 68.523 76.4859 66.7499 75.5397 65.2066C87.3988 63.4083 98.3987 57.9468 107 49.5866V60.3333ZM98.3797 48.4066C99.6537 45.9054 100.323 43.1402 100.333 40.3333C100.333 25.3799 81.2997 13.6666 56.9997 13.6666C32.6997 13.6666 13.6664 25.3799 13.6664 40.3333C13.6774 43.1401 14.3465 45.9052 15.6197 48.4066C13.1523 46.7715 11.0924 44.5927 9.59816 42.0375C8.10389 39.4823 7.215 36.6188 6.99971 33.6666C6.99971 19.2133 29.8997 6.99992 56.9997 6.99992C84.0997 6.99992 107 19.2133 107 33.6666C106.784 36.6188 105.896 39.4823 104.401 42.0375C102.907 44.5927 100.847 46.7715 98.3797 48.4066Z" fill="#393D46"/>
</svg>
