<svg width="80" height="114" viewBox="0 0 80 114" fill="none" xmlns="http://www.w3.org/2000/svg">
<path d="M0.000118289 88.9534C0.207608 96.3698 2.3074 103.61 6.10012 109.987C6.65431 111.093 7.5053 112.023 8.55787 112.673C9.61044 113.322 10.8231 113.667 12.0601 113.667H40.7268C42.215 113.668 43.6608 113.171 44.8339 112.255C46.007 111.339 46.84 110.057 47.2001 108.613L50.0001 97.4134L52.8001 108.613C53.1603 110.057 53.9932 111.339 55.1663 112.255C56.3394 113.171 57.7852 113.668 59.2734 113.667H67.9401C69.1797 113.667 70.3947 113.321 71.4487 112.669C72.5027 112.016 73.3539 111.083 73.9068 109.973C77.7016 103.603 79.7995 96.3658 80.0001 88.9534C80.0001 69.34 66.6668 63.2067 66.6668 55.6867C66.6668 46.3534 80.0001 44.76 80.0001 31.6467C80.0001 17.4534 66.6668 18.8934 66.6668 10.0734V7.00004C66.6668 5.23193 65.9644 3.53624 64.7142 2.286C63.4639 1.03575 61.7682 0.333374 60.0001 0.333374H53.3334C51.5653 0.333374 49.8696 1.03575 48.6194 2.286C47.3692 3.53624 46.6668 5.23193 46.6668 7.00004V11C46.668 12.2994 46.3478 13.5789 45.7348 14.7246C45.1219 15.8703 44.2351 16.8467 43.1534 17.5667C41.9696 18.3547 40.9073 19.3115 40.0001 20.4067C39.0929 19.3115 38.0306 18.3547 36.8468 17.5667C35.7652 16.8467 34.8784 15.8703 34.2654 14.7246C33.6524 13.5789 33.3323 12.2994 33.3334 11V7.00004C33.3334 5.23193 32.6311 3.53624 31.3808 2.286C30.1306 1.03575 28.4349 0.333374 26.6668 0.333374H20.0001C18.232 0.333374 16.5363 1.03575 15.2861 2.286C14.0358 3.53624 13.3334 5.23193 13.3334 7.00004V10.0734C13.3379 11.5364 12.9332 12.9715 12.1652 14.2167C11.3971 15.4618 10.2962 16.4675 8.98678 17.12C6.27885 18.4623 4.0014 20.5368 2.41293 23.1081C0.82445 25.6793 -0.0114414 28.6444 0.000118289 31.6667C0.000118289 44.6267 13.3334 46.5067 13.3334 55.82C13.3334 62.94 0.000118289 69.4934 0.000118289 88.9534ZM6.66678 31.62C6.66678 21.1267 20.0001 23.9134 20.0001 10.0467V7.00004H26.6668V11C26.6632 13.3979 27.2538 15.7592 28.3857 17.873C29.5177 19.9868 31.1557 21.7873 33.1534 23.1134C34.2332 23.8322 35.1188 24.8064 35.7317 25.9496C36.3446 27.0928 36.6658 28.3696 36.6668 29.6667C36.6668 30.5508 37.018 31.3986 37.6431 32.0237C38.2682 32.6489 39.1161 33 40.0001 33C40.8842 33 41.732 32.6489 42.3571 32.0237C42.9823 31.3986 43.3334 30.5508 43.3334 29.6667C43.3323 28.3673 43.6524 27.0878 44.2654 25.9421C44.8784 24.7964 45.7652 23.8201 46.8468 23.1C48.8426 21.7752 50.4795 19.9769 51.6113 17.8656C52.7432 15.7542 53.3348 13.3956 53.3334 11V7.00004H60.0001V10.0734C60.0001 24.0734 73.3334 21.06 73.3334 31.6467C73.3334 41.06 60.0001 42.5667 60.0001 55.8C60.0001 67.5 73.3334 70.6067 73.3334 88.9534C73.1055 95.3297 71.2513 101.542 67.9468 107H59.2801L53.2401 82.86C52.9905 82.2047 52.5476 81.6407 51.9702 81.2428C51.3927 80.8449 50.708 80.6318 50.0068 80.6318C49.3055 80.6318 48.6208 80.8449 48.0434 81.2428C47.466 81.6407 47.0231 82.2047 46.7734 82.86L40.7268 107H12.0601C8.75465 101.542 6.89819 95.3301 6.66678 88.9534C6.66678 70.7934 20.0001 67.5601 20.0001 55.6867C20.0001 42.46 6.66678 41.1667 6.66678 31.6667V31.62Z" fill="#393D46"/>
</svg>


