<svg width="114" height="114" viewBox="0 0 114 114" fill="none" xmlns="http://www.w3.org/2000/svg">
<path d="M100.913 24.9666C100.373 23.6168 99.5451 22.401 98.487 21.4039C97.4289 20.4068 96.1661 19.6524 94.7865 19.1933L79.0332 13.94L74.8265 5.52665C74 3.86203 72.7238 2.46208 71.1427 1.48533C69.5615 0.508575 67.7384 -0.00595767 65.8799 -1.0051e-05H47.4532C45.5947 -0.00595767 43.7716 0.508575 42.1904 1.48533C40.6092 2.46208 39.3331 3.86203 38.5065 5.52665L34.2999 13.94L18.5465 19.1933C17.167 19.6524 15.9042 20.4068 14.8461 21.4039C13.788 22.401 12.96 23.6168 12.4199 24.9666L1.19321 53.04C0.401206 55.0086 -0.0039605 57.1113 -0.000125618 59.2333V99.9999C-0.000125618 101.768 0.702255 103.464 1.9525 104.714C3.20274 105.964 4.89843 106.667 6.66654 106.667H13.3332C15.1013 106.667 16.797 105.964 18.0473 104.714C19.2975 103.464 19.9999 101.768 19.9999 99.9999V90.4933L23.3332 79.3733V86.8533C23.5298 90.6117 24.6767 94.2588 26.6665 97.4533V106.667C26.6665 108.435 27.3689 110.13 28.6192 111.381C29.8694 112.631 31.5651 113.333 33.3332 113.333H79.9999C81.768 113.333 83.4637 112.631 84.7139 111.381C85.9642 110.13 86.6665 108.435 86.6665 106.667V97.4533C88.6566 94.2589 89.8036 90.6117 89.9999 86.8533V79.3733L93.3332 90.4933V99.9999C93.3332 101.768 94.0356 103.464 95.2858 104.714C96.5361 105.964 98.2318 106.667 99.9999 106.667H106.667C108.435 106.667 110.13 105.964 111.381 104.714C112.631 103.464 113.333 101.768 113.333 99.9999V59.2333C113.338 57.1134 112.932 55.0127 112.14 53.0466L100.913 24.9666ZM93.2599 25.8666C89.7044 31.2131 86.4483 36.7527 83.5065 42.46C83.1532 43.7933 83.4532 42.2466 83.3332 79.9999C80.681 79.9999 78.1375 78.9464 76.2621 77.071C74.3868 75.1957 73.3332 72.6521 73.3332 69.9999C73.3332 69.1159 72.982 68.268 72.3569 67.6429C71.7318 67.0178 70.8839 66.6666 69.9999 66.6666C69.1158 66.6666 68.268 67.0178 67.6428 67.6429C67.0177 68.268 66.6665 69.1159 66.6665 69.9999C66.6665 74.4202 68.4225 78.6594 71.5481 81.7851C74.6737 84.9107 78.9129 86.6666 83.3332 86.6666V86.8533C83.1947 89.1507 82.4868 91.3776 81.2732 93.3333H59.9999V31.7866L77.1599 20.3466C96.1999 26.82 91.9332 25.0933 93.2599 25.8666ZM42.6665 12.1733L46.7932 19.3933L40.9932 15.5266L42.6665 12.1733ZM70.7199 12.1733L72.3932 15.5066L66.5932 19.3733L70.7199 12.1733ZM66.1465 6.73332L56.6665 23.28L47.2132 6.73332C48.5665 6.66665 64.7599 6.66665 66.1199 6.73332H66.1465ZM36.1732 20.3466L53.3332 31.7866V93.3333H32.0599C30.8361 91.3823 30.1274 89.1527 29.9999 86.8533V86.6666C34.4201 86.6666 38.6594 84.9107 41.785 81.7851C44.9106 78.6594 46.6665 74.4202 46.6665 69.9999C46.6665 69.1159 46.3154 68.268 45.6902 67.6429C45.0651 67.0178 44.2173 66.6666 43.3332 66.6666C42.4492 66.6666 41.6013 67.0178 40.9762 67.6429C40.3511 68.268 39.9999 69.1159 39.9999 69.9999C39.9999 72.6521 38.9463 75.1957 37.0709 77.071C35.1956 78.9464 32.652 79.9999 29.9999 79.9999C29.8799 42.2533 30.1799 43.76 29.8265 42.46C26.8869 36.7516 23.6307 31.2119 20.0732 25.8666C21.0932 25.2666 29.3732 22.6666 36.1732 20.3466ZM6.66654 99.9999V93.3333H13.3332V99.9999H6.66654ZM22.9132 57.5866L14.1865 86.6666H6.66654V59.2333C6.66601 57.9614 6.90811 56.7011 7.37987 55.52L16.4665 32.8133L23.3332 44.2533V54.7133C23.3338 55.6864 23.1923 56.6544 22.9132 57.5866V57.5866ZM33.3332 106.667V99.9999H79.9999V106.667H33.3332ZM89.9999 54.7133V44.2533L96.8665 32.8133L105.953 55.5266C106.426 56.705 106.669 57.9634 106.667 59.2333V86.6666H99.1465L90.4199 57.58C90.1402 56.6501 89.9987 55.6843 89.9999 54.7133V54.7133ZM99.9999 99.9999V93.3333H106.667V99.9999H99.9999Z" fill="#393D46"/>
</svg>
