<svg width="74" height="114" viewBox="0 0 74 114" fill="none" xmlns="http://www.w3.org/2000/svg">
<path d="M60.3329 0.333325H13.2663C11.5675 0.330057 9.93154 0.975418 8.69252 2.13761C7.45351 3.2998 6.7049 4.89115 6.59958 6.58666L0.346252 106.587C0.288796 107.497 0.418691 108.409 0.7279 109.267C1.03711 110.125 1.51906 110.91 2.14393 111.575C2.76881 112.239 3.52333 112.768 4.36082 113.129C5.1983 113.49 6.10094 113.675 7.01291 113.673H20.6462C22.2243 113.673 23.7509 113.112 24.9545 112.092C26.1582 111.071 26.9608 109.657 27.2196 108.1L36.7996 50.6133L46.3796 108.1C46.6398 109.655 47.443 111.068 48.6465 112.087C49.85 113.107 51.3758 113.666 52.9529 113.667H66.5862C67.4976 113.668 68.3997 113.483 69.2367 113.123C70.0737 112.762 70.8279 112.234 71.4527 111.57C72.0774 110.907 72.5595 110.122 72.8692 109.265C73.1788 108.408 73.3094 107.496 73.2529 106.587L66.9996 6.58666C66.8943 4.89115 66.1456 3.2998 64.9066 2.13761C63.6676 0.975418 62.0317 0.330057 60.3329 0.333325ZM60.3329 6.99999L61.0662 18.74C58.7987 17.7291 56.8735 16.0816 55.5244 13.9976C54.1753 11.9135 53.4603 9.48261 53.4662 6.99999H60.3329ZM20.1329 6.99999C20.138 9.48242 19.4227 11.913 18.0737 13.9969C16.7247 16.0808 14.7999 17.7284 12.5329 18.74L13.2663 6.99999H20.1329ZM52.9529 107L40.0862 29.7867C39.9549 29.01 39.5528 28.3049 38.9511 27.7965C38.3495 27.2881 37.5873 27.0091 36.7996 27.0091C36.0119 27.0091 35.2496 27.2881 34.648 27.7965C34.0464 28.3049 33.6443 29.01 33.5129 29.7867L20.6462 107H7.01291L12.0529 26.4333C16.1894 25.0679 19.8139 22.479 22.447 19.0089C25.0802 15.5389 26.598 11.3513 26.7996 6.99999H33.4662V17C33.4662 17.884 33.8174 18.7319 34.4426 19.357C35.0677 19.9821 35.9155 20.3333 36.7996 20.3333C37.6836 20.3333 38.5315 19.9821 39.1566 19.357C39.7817 18.7319 40.1329 17.884 40.1329 17V6.99999H46.7996C47.0012 11.3513 48.519 15.5389 51.1521 19.0089C53.7853 22.479 57.4098 25.0679 61.5462 26.4333L66.5862 107H52.9529Z" fill="#393D46"/>
</svg>

