<svg width="111" height="100" viewBox="0 0 111 100" fill="none" xmlns="http://www.w3.org/2000/svg">
<path d="M31.9529 100H78.6196C80.3877 100 82.0834 99.2976 83.3336 98.0474C84.5839 96.7972 85.2862 95.1015 85.2862 93.3334V38.0467L90.5729 43.3334C91.842 44.5469 93.5303 45.2242 95.2862 45.2242C97.0422 45.2242 98.7305 44.5469 99.9996 43.3334L108.62 34.7134C109.869 33.4632 110.571 31.7678 110.571 30C110.571 28.2323 109.869 26.5369 108.62 25.2867L86.2596 2.9267C85.3335 1.99608 84.2322 1.25827 83.0192 0.755928C81.8063 0.253581 80.5058 -0.00333603 79.1929 3.27038e-05H31.3796C30.0667 -0.00333603 28.7662 0.253581 27.5532 0.755928C26.3403 1.25827 25.2389 1.99608 24.3129 2.9267L1.95289 25.2867C0.70308 26.5369 0.000976562 28.2323 0.000976562 30C0.000976562 31.7678 0.70308 33.4632 1.95289 34.7134L10.5729 43.3334C11.842 44.5469 13.5303 45.2242 15.2862 45.2242C17.0422 45.2242 18.7304 44.5469 19.9996 43.3334L25.2862 38.0467V93.3334C25.2862 95.1015 25.9886 96.7972 27.2388 98.0474C28.4891 99.2976 30.1848 100 31.9529 100ZM64.6729 6.6667C63.9941 8.61518 62.7257 10.3041 61.0437 11.4993C59.3618 12.6944 57.3496 13.3365 55.2862 13.3365C53.2229 13.3365 51.2107 12.6944 49.5287 11.4993C47.8467 10.3041 46.5784 8.61518 45.8996 6.6667H64.6729ZM15.2862 38.62L6.66622 30L29.0262 7.64003C29.6509 7.0169 30.4972 6.66689 31.3796 6.6667H38.9596C39.7246 10.4343 41.7687 13.8216 44.7454 16.2546C47.7221 18.6876 51.4484 20.0167 55.2929 20.0167C59.1374 20.0167 62.8637 18.6876 65.8404 16.2546C68.8171 13.8216 70.8612 10.4343 71.6262 6.6667H79.2062C80.0886 6.66689 80.9349 7.0169 81.5596 7.64003L103.906 30L95.2862 38.62L84.3129 27.64C83.8467 27.1726 83.2522 26.8542 82.6048 26.7251C81.9575 26.596 81.2863 26.662 80.6765 26.9148C80.0667 27.1676 79.5456 27.5957 79.1794 28.145C78.8132 28.6943 78.6184 29.3399 78.6196 30V93.3334H31.9529V30C31.9541 29.3399 31.7592 28.6943 31.393 28.145C31.0268 27.5957 30.5058 27.1676 29.896 26.9148C29.2862 26.662 28.615 26.596 27.9676 26.7251C27.3202 26.8542 26.7258 27.1726 26.2596 27.64L15.2862 38.62Z" fill="#393D46"/>
</svg>
