<svg width="114" height="81" viewBox="0 0 114 81" fill="none" xmlns="http://www.w3.org/2000/svg">
<path d="M107.002 6.8707H72.3957C71.2028 6.87219 70.0325 7.19567 69.0081 7.807C67.9837 8.41833 67.1434 9.29484 66.5757 10.344C66.1227 8.3749 65.2281 6.53447 63.9595 4.96182C62.6908 3.38916 61.0814 2.1254 59.2526 1.26603C57.4239 0.406658 55.4238 -0.0258544 53.4034 0.00117821C51.383 0.0282108 49.3952 0.514078 47.5902 1.42207C45.7851 2.33006 44.21 3.63643 42.9839 5.24246C41.7578 6.8485 40.9127 8.7122 40.5126 10.6928C40.1124 12.6733 40.1676 14.7189 40.674 16.675C41.1804 18.6311 42.1248 20.4465 43.4357 21.984C42.6357 22.1507 38.0024 23.2174 36.1957 23.6374C35.356 23.8676 34.6398 24.4173 34.2001 25.1688C33.7605 25.9204 33.6323 26.8141 33.8431 27.6589C34.0538 28.5037 34.5868 29.2325 35.3279 29.6894C36.0691 30.1464 36.9596 30.2952 37.8091 30.104C43.6116 28.4384 49.5819 27.4255 55.6091 27.084C50.6281 31.2677 44.3273 33.5538 37.8224 33.5374C29.2289 33.5426 20.8834 36.4178 14.1102 41.7066C7.33707 46.9954 2.5243 54.3949 0.435727 62.7307C0.255727 63.4574 0.375728 66.3774 0.335728 70.204C0.335728 71.5172 0.594384 72.8176 1.09693 74.0309C1.59948 75.2441 2.33607 76.3465 3.26466 77.2751C4.19325 78.2037 5.29564 78.9403 6.50889 79.4428C7.72215 79.9454 9.02251 80.204 10.3357 80.204H67.5757C70.2245 80.1955 72.7632 79.1441 74.6424 77.2774L77.0024 74.9174L79.3624 77.2774C81.2416 79.1441 83.7804 80.1955 86.4291 80.204H103.669C106.321 80.204 108.865 79.1505 110.74 77.2751C112.616 75.3997 113.669 72.8562 113.669 70.204V13.5374C113.669 11.7693 112.967 10.0736 111.716 8.82332C110.466 7.57308 108.771 6.8707 107.002 6.8707ZM53.6691 20.204C52.3505 20.204 51.0616 19.813 49.9653 19.0805C48.8689 18.348 48.0145 17.3068 47.5099 16.0886C47.0053 14.8704 46.8733 13.53 47.1305 12.2368C47.3877 10.9436 48.0227 9.75567 48.955 8.82332C49.8874 7.89097 51.0753 7.25603 52.3685 6.99879C53.6617 6.74156 55.0021 6.87358 56.2203 7.37817C57.4385 7.88275 58.4797 8.73723 59.2122 9.83356C59.9447 10.9299 60.3357 12.2188 60.3357 13.5374V20.204H53.6691ZM37.8224 40.204C41.1567 40.1988 44.4729 39.7138 47.6691 38.764C48.8081 40.0998 50.0235 41.3686 51.3091 42.564C51.935 43.1899 52.7839 43.5416 53.6691 43.5416C54.5542 43.5416 55.4032 43.1899 56.0291 42.564C56.655 41.9381 57.0066 41.0892 57.0066 40.204C57.0066 39.3189 56.655 38.4699 56.0291 37.844L54.1891 36.004C55.0224 35.5507 55.8557 35.0907 56.6491 34.564L61.3157 39.2307C61.9417 39.8566 62.7906 40.2082 63.6757 40.2082C64.5609 40.2082 65.4098 39.8566 66.0357 39.2307C66.6617 38.6048 67.0133 37.7559 67.0133 36.8707C67.0133 35.9855 66.6617 35.1366 66.0357 34.5107L61.8557 30.3374C62.5224 29.6707 63.1891 29.004 63.7624 28.3374L67.9824 32.564C68.2923 32.8739 68.6603 33.1198 69.0652 33.2875C69.4701 33.4552 69.9041 33.5416 70.3424 33.5416C70.7807 33.5416 71.2147 33.4552 71.6196 33.2875C72.0246 33.1198 72.3925 32.8739 72.7024 32.564C73.0123 32.2541 73.2582 31.8862 73.4259 31.4813C73.5936 31.0763 73.68 30.6423 73.68 30.204C73.68 29.7657 73.5936 29.3317 73.4259 28.9268C73.2582 28.5219 73.0123 28.1539 72.7024 27.844L67.6357 22.784C69.8157 18.9374 70.1491 17.9307 72.4024 13.5374H107.002V60.204H8.2424C10.6069 54.2941 14.6895 49.2292 19.9627 45.6639C25.2358 42.0986 31.4571 40.1967 37.8224 40.204V40.204ZM103.669 73.5374H86.4291C84.3224 73.5374 83.5691 71.8107 81.7158 70.204C80.4451 68.9935 78.7574 68.3183 77.0024 68.3183C75.2474 68.3183 73.5597 68.9935 72.2891 70.204C70.4291 71.8174 69.6757 73.5374 67.5757 73.5374H10.3357C9.45167 73.5374 8.60383 73.1862 7.97871 72.5611C7.35359 71.9359 7.0024 71.0881 7.0024 70.204V66.8707H107.002V70.204C107.002 71.0881 106.651 71.9359 106.026 72.5611C105.401 73.1862 104.553 73.5374 103.669 73.5374Z" fill="#393D46"/>
</svg>
