<svg width="95" height="114" viewBox="0 0 95 114" fill="none" xmlns="http://www.w3.org/2000/svg">
<path d="M84 16.7934V7.33335C84 5.56524 83.2977 3.86955 82.0474 2.61931C80.7972 1.36907 79.1015 0.666687 77.3334 0.666687H17.3334C15.5652 0.666687 13.8696 1.36907 12.6193 2.61931C11.3691 3.86955 10.6667 5.56524 10.6667 7.33335V16.7934C5.38003 34.5 0.313358 42.4733 0.586691 57.3333C0.873358 72.84 6.44002 80.18 16.7334 109.68C17.2159 110.947 18.0711 112.038 19.1863 112.809C20.3014 113.581 21.6242 113.996 22.98 114H51.1734C52.7514 113.999 54.278 113.439 55.4817 112.418C56.6853 111.398 57.4879 109.983 57.7467 108.427L60.6667 90.94L63.8134 109.827C64.0077 110.994 64.6104 112.055 65.514 112.819C66.4175 113.583 67.5632 114.002 68.7467 114H72.8467C73.8614 113.997 74.8513 113.686 75.6849 113.107C76.5184 112.528 77.1562 111.71 77.5134 110.76C88.0134 80.76 93.7867 72.96 94.0734 57.34C94.3534 42.44 89.24 34.34 84 16.7934ZM77.3334 7.33335V14H17.3334V7.33335H77.3334ZM71.6867 107.333H70.1534L63.9534 70.12C63.822 69.3433 63.4199 68.6383 62.8182 68.1299C62.2166 67.6214 61.4544 67.3425 60.6667 67.3425C59.879 67.3425 59.1168 67.6214 58.5151 68.1299C57.9135 68.6383 57.5114 69.3433 57.38 70.12L51.1734 107.333H22.9734C12.4267 77.3333 7.54002 71.0867 7.25336 57.3333C6.98002 44.1333 11.4467 37.2333 16.4067 20.6667H78.26C83.1934 37.1333 87.66 44.1 87.4134 57.2133C87.16 71.0733 82.2 77.4133 71.6867 107.333Z" fill="#393D46"/>
</svg>


