<svg width="114" height="114" viewBox="0 0 114 114" fill="none" xmlns="http://www.w3.org/2000/svg">
<path d="M100.667 3.73997C100.591 2.85893 100.171 2.04318 99.4993 1.46837C98.8272 0.893552 97.9563 0.605647 97.074 0.666642C96.6358 0.699482 96.2084 0.818647 95.8164 1.01728C95.4244 1.21592 95.0756 1.4901 94.7899 1.82406C94.5043 2.15802 94.2875 2.54516 94.1521 2.96321C94.0166 3.38126 93.9652 3.82197 94.0007 4.25998L97.914 54.1733C89.0258 54.841 80.5054 57.9986 73.3285 63.2842C66.1516 68.5699 60.6085 75.77 57.334 84.06C54.0585 75.7681 48.5133 68.5667 41.3339 63.2809C34.1545 57.995 25.6312 54.8386 16.7407 54.1733L20.6673 4.25998C20.7363 3.37592 20.4512 2.50068 19.8749 1.8268C19.2985 1.15292 18.4781 0.735598 17.594 0.666642C16.71 0.597686 15.8347 0.882742 15.1608 1.4591C14.4869 2.03547 14.0696 2.85592 14.0007 3.73997L9.90067 56.0533C3.9287 62.4789 0.634306 70.9415 0.690027 79.7136C0.745747 88.4856 4.14737 96.9057 10.2005 103.255C16.2536 109.604 24.5018 113.404 33.2612 113.878C42.0206 114.352 50.6308 111.465 57.334 105.807C64.0372 111.461 72.6459 114.345 81.4028 113.868C90.1597 113.392 98.4046 109.592 104.455 103.243C110.505 96.8941 113.904 88.4758 113.958 79.7061C114.013 70.9364 110.718 62.4766 104.747 56.0533L100.667 3.73997ZM15.5073 99.16C10.434 94.0943 7.50546 87.27 7.3292 80.1028C7.15294 72.9356 9.74249 65.9756 14.5607 60.6666C24.9156 61.0017 34.7548 65.2654 42.08 72.5919C49.4053 79.9184 53.6674 89.7583 54.0007 100.113C48.6909 104.931 41.7304 107.519 34.5632 107.341C27.396 107.164 20.5722 104.234 15.5073 99.16ZM99.154 99.16C94.0855 104.218 87.2681 107.137 80.1097 107.313C72.9512 107.489 65.9985 104.909 60.6873 100.107C61.022 89.7562 65.2821 79.9207 72.6029 72.5962C79.9238 65.2716 89.757 61.0066 100.107 60.6666C104.926 65.9757 107.516 72.9365 107.338 80.1042C107.161 87.2719 104.23 94.096 99.154 99.16Z" fill="#393D46"/>
</svg>
