<svg width="18" height="14" viewBox="0 0 18 14" fill="none" xmlns="http://www.w3.org/2000/svg">
<path d="M9.79025 13.7171L17.1716 7.70285C17.5285 7.41511 17.5285 6.94488 17.1716 6.65406L9.79025 0.642923C9.43714 0.352099 8.86 0.352099 8.5031 0.642923L7.66017 1.32974C7.29568 1.62365 7.30324 2.10318 7.67537 2.39089L12.2507 5.9425H1.33821C0.833224 5.9425 0.426941 6.27353 0.426941 6.685V7.67499C0.426941 8.08646 0.833224 8.41749 1.33821 8.41749H12.2507L7.67537 11.9691C7.30706 12.2568 7.29946 12.7363 7.66017 13.0303L8.5031 13.7171C8.85622 14.0079 9.43336 14.0079 9.79025 13.7171Z" fill="#1565D8"/>
</svg>
