<svg width="25" height="26" viewBox="0 0 25 26" fill="none" xmlns="http://www.w3.org/2000/svg">
<path d="M8.83334 21.3333C8.43778 21.3333 8.0511 21.4506 7.7222 21.6704C7.3933 21.8902 7.13695 22.2025 6.98558 22.568C6.8342 22.9334 6.7946 23.3356 6.87177 23.7235C6.94894 24.1115 7.13942 24.4678 7.41912 24.7475C7.69883 25.0273 8.0552 25.2177 8.44316 25.2949C8.83112 25.3721 9.23325 25.3325 9.59871 25.1811C9.96416 25.0297 10.2765 24.7734 10.4963 24.4445C10.716 24.1156 10.8333 23.7289 10.8333 23.3333C10.8333 22.8029 10.6226 22.2942 10.2476 21.9191C9.87248 21.544 9.36377 21.3333 8.83334 21.3333ZM22.8333 17.3333H6.83334C6.47972 17.3333 6.14058 17.1929 5.89053 16.9428C5.64048 16.6928 5.50001 16.3536 5.50001 16C5.50001 15.6464 5.64048 15.3072 5.89053 15.0572C6.14058 14.8071 6.47972 14.6667 6.83334 14.6667H18.155C19.0235 14.6639 19.8678 14.3797 20.5612 13.8567C21.2547 13.3336 21.76 12.6 22.0013 11.7656L24.1152 4.36653C24.172 4.1681 24.1818 3.9592 24.1441 3.7563C24.1064 3.5534 24.022 3.36202 23.8978 3.19724C23.7735 3.03246 23.6127 2.89878 23.428 2.80671C23.2433 2.71464 23.0397 2.6667 22.8333 2.66667H6.48543C6.20941 1.88981 5.7006 1.21695 5.02831 0.739752C4.35601 0.262557 3.55295 0.004241 2.72853 0H1.50001C1.14638 0 0.807244 0.140476 0.557196 0.390524C0.307147 0.640573 0.166672 0.979711 0.166672 1.33333C0.166672 1.68696 0.307147 2.02609 0.557196 2.27614C0.807244 2.52619 1.14638 2.66667 1.50001 2.66667H2.72853C3.01797 2.66768 3.2993 2.76242 3.53039 2.93671C3.76148 3.11099 3.92989 3.35545 4.01042 3.63347L4.21778 4.35979L4.2181 4.36653L6.40561 12.0228C5.38769 12.1323 4.4505 12.6279 3.78703 13.4076C3.12355 14.1873 2.78429 15.1918 2.83911 16.2141C2.89392 17.2364 3.33864 18.1988 4.08169 18.9031C4.82474 19.6074 5.80955 20 6.83334 20H22.8333C23.187 20 23.5261 19.8595 23.7761 19.6095C24.0262 19.3594 24.1667 19.0203 24.1667 18.6667C24.1667 18.313 24.0262 17.9739 23.7761 17.7239C23.5261 17.4738 23.187 17.3333 22.8333 17.3333ZM21.0658 5.33333L19.4375 11.0325C19.3571 11.3108 19.1886 11.5555 18.9574 11.7299C18.7261 11.9043 18.4446 11.9991 18.155 12H9.17253L8.83261 10.8104L7.26857 5.33333H21.0658ZM19.5 21.3333C19.1044 21.3333 18.7178 21.4506 18.3889 21.6704C18.06 21.8902 17.8036 22.2025 17.6522 22.568C17.5009 22.9334 17.4613 23.3356 17.5384 23.7235C17.6156 24.1115 17.8061 24.4678 18.0858 24.7475C18.3655 25.0273 18.7219 25.2177 19.1098 25.2949C19.4978 25.3721 19.8999 25.3325 20.2654 25.1811C20.6308 25.0297 20.9432 24.7734 21.1629 24.4445C21.3827 24.1156 21.5 23.7289 21.5 23.3333C21.5 22.8029 21.2893 22.2942 20.9142 21.9191C20.5391 21.544 20.0304 21.3333 19.5 21.3333Z" fill="white"/>
</svg>
