<svg width="20" height="20" viewBox="0 0 20 20" fill="none" xmlns="http://www.w3.org/2000/svg">
<path d="M7.22222 16.8421C6.89259 16.8421 6.57035 16.9347 6.29627 17.1082C6.02219 17.2817 5.80857 17.5283 5.68242 17.8168C5.55628 18.1053 5.52327 18.4228 5.58758 18.7291C5.65189 19.0354 5.81062 19.3167 6.04371 19.5375C6.2768 19.7584 6.57377 19.9087 6.89707 19.9697C7.22037 20.0306 7.55548 19.9993 7.86003 19.8798C8.16457 19.7603 8.42487 19.5579 8.60801 19.2983C8.79114 19.0386 8.88889 18.7333 8.88889 18.4211C8.88889 18.0023 8.71329 17.6007 8.40073 17.3046C8.08817 17.0085 7.66425 16.8421 7.22222 16.8421ZM18.8889 13.6842H5.55556C5.26087 13.6842 4.97826 13.5733 4.76988 13.3759C4.56151 13.1785 4.44444 12.9108 4.44444 12.6316C4.44444 12.3524 4.56151 12.0847 4.76988 11.8873C4.97826 11.6898 5.26087 11.5789 5.55556 11.5789H14.9902C15.714 11.5767 16.4176 11.3524 16.9955 10.9395C17.5733 10.5266 17.9944 9.94735 18.1956 9.28865L19.9571 3.44726C20.0044 3.2906 20.0126 3.12569 19.9812 2.9655C19.9497 2.80531 19.8795 2.65423 19.7759 2.52414C19.6724 2.39405 19.5384 2.28851 19.3844 2.21582C19.2305 2.14314 19.0609 2.10529 18.8889 2.10526H5.26563C5.03562 1.49196 4.6116 0.960747 4.05136 0.584015C3.49112 0.207282 2.8219 0.00334816 2.13488 0H1.11111C0.816426 0 0.533811 0.110902 0.325437 0.308309C0.117063 0.505715 0 0.773456 0 1.05263C0 1.33181 0.117063 1.59955 0.325437 1.79695C0.533811 1.99436 0.816426 2.10526 1.11111 2.10526H2.13488C2.37608 2.10606 2.61052 2.18086 2.8031 2.31845C2.99567 2.45605 3.13602 2.64904 3.20312 2.86853L3.37592 3.44194L3.37619 3.44726L5.19911 9.49167C4.35085 9.57812 3.56986 9.96941 3.01696 10.585C2.46406 11.2005 2.18135 11.9935 2.22703 12.8006C2.27271 13.6077 2.64331 14.3675 3.26251 14.9235C3.88172 15.4795 4.7024 15.7895 5.55556 15.7895H18.8889C19.1836 15.7895 19.4662 15.6786 19.6746 15.4812C19.8829 15.2838 20 15.016 20 14.7368C20 14.4577 19.8829 14.1899 19.6746 13.9925C19.4662 13.7951 19.1836 13.6842 18.8889 13.6842ZM17.4159 4.21053L16.059 8.70991C15.992 8.92957 15.8516 9.12274 15.6589 9.26044C15.4662 9.39815 15.2316 9.47297 14.9902 9.47368H7.50488L7.22161 8.53452L5.91824 4.21053H17.4159ZM16.1111 16.8421C15.7815 16.8421 15.4592 16.9347 15.1852 17.1082C14.9111 17.2817 14.6975 17.5283 14.5713 17.8168C14.4452 18.1053 14.4122 18.4228 14.4765 18.7291C14.5408 19.0354 14.6995 19.3167 14.9326 19.5375C15.1657 19.7584 15.4627 19.9087 15.786 19.9697C16.1093 20.0306 16.4444 19.9993 16.7489 19.8798C17.0535 19.7603 17.3138 19.5579 17.4969 19.2983C17.68 19.0386 17.7778 18.7333 17.7778 18.4211C17.7778 18.0023 17.6022 17.6007 17.2896 17.3046C16.9771 17.0085 16.5531 16.8421 16.1111 16.8421Z" fill="#393D46"/>
</svg>
