<svg width="115" height="102" viewBox="0 0 115 102" fill="none" xmlns="http://www.w3.org/2000/svg">
<path opacity="0.2" fill-rule="evenodd" clip-rule="evenodd" d="M114.667 3C114.667 4.65685 112.876 6 110.667 6C108.458 6 106.667 4.65685 106.667 3C106.667 1.34315 108.458 0 110.667 0C112.876 0 114.667 1.34315 114.667 3ZM114.667 19C114.667 20.6569 112.876 22 110.667 22C108.458 22 106.667 20.6569 106.667 19C106.667 17.3431 108.458 16 110.667 16C112.876 16 114.667 17.3431 114.667 19ZM114.667 35C114.667 36.6569 112.876 38 110.667 38C108.458 38 106.667 36.6569 106.667 35C106.667 33.3431 108.458 32 110.667 32C112.876 32 114.667 33.3431 114.667 35ZM114.667 51C114.667 52.6569 112.876 54 110.667 54C108.458 54 106.667 52.6569 106.667 51C106.667 49.3431 108.458 48 110.667 48C112.876 48 114.667 49.3431 114.667 51ZM114.667 67C114.667 68.6569 112.876 70 110.667 70C108.458 70 106.667 68.6569 106.667 67C106.667 65.3431 108.458 64 110.667 64C112.876 64 114.667 65.3431 114.667 67ZM114.667 83C114.667 84.6569 112.876 86 110.667 86C108.458 86 106.667 84.6569 106.667 83C106.667 81.3431 108.458 80 110.667 80C112.876 80 114.667 81.3431 114.667 83ZM4 102C6.20914 102 8 100.657 8 99C8 97.3431 6.20914 96 4 96C1.79086 96 0 97.3431 0 99C0 100.657 1.79086 102 4 102ZM29.3333 99C29.3333 100.657 27.5425 102 25.3333 102C23.1242 102 21.3333 100.657 21.3333 99C21.3333 97.3431 23.1242 96 25.3333 96C27.5425 96 29.3333 97.3431 29.3333 99ZM46.6667 102C48.8758 102 50.6667 100.657 50.6667 99C50.6667 97.3431 48.8758 96 46.6667 96C44.4575 96 42.6667 97.3431 42.6667 99C42.6667 100.657 44.4575 102 46.6667 102ZM72 99C72 100.657 70.2091 102 68 102C65.7909 102 64 100.657 64 99C64 97.3431 65.7909 96 68 96C70.2091 96 72 97.3431 72 99ZM89.3333 102C91.5425 102 93.3333 100.657 93.3333 99C93.3333 97.3431 91.5425 96 89.3333 96C87.1242 96 85.3333 97.3431 85.3333 99C85.3333 100.657 87.1242 102 89.3333 102ZM110.667 102C112.876 102 114.667 100.657 114.667 99C114.667 97.3431 112.876 96 110.667 96C108.458 96 106.667 97.3431 106.667 99C106.667 100.657 108.458 102 110.667 102ZM89.3333 86C91.5425 86 93.3333 84.6569 93.3333 83C93.3333 81.3431 91.5425 80 89.3333 80C87.1242 80 85.3333 81.3431 85.3333 83C85.3333 84.6569 87.1242 86 89.3333 86ZM72 83C72 84.6569 70.2091 86 68 86C65.7909 86 64 84.6569 64 83C64 81.3431 65.7909 80 68 80C70.2091 80 72 81.3431 72 83ZM46.6667 86C48.8758 86 50.6667 84.6569 50.6667 83C50.6667 81.3431 48.8758 80 46.6667 80C44.4575 80 42.6667 81.3431 42.6667 83C42.6667 84.6569 44.4575 86 46.6667 86ZM29.3333 83C29.3333 84.6569 27.5425 86 25.3333 86C23.1242 86 21.3333 84.6569 21.3333 83C21.3333 81.3431 23.1242 80 25.3333 80C27.5425 80 29.3333 81.3431 29.3333 83ZM4 86C6.20914 86 8 84.6569 8 83C8 81.3431 6.20914 80 4 80C1.79086 80 0 81.3431 0 83C0 84.6569 1.79086 86 4 86ZM89.3333 70C91.5425 70 93.3333 68.6569 93.3333 67C93.3333 65.3431 91.5425 64 89.3333 64C87.1242 64 85.3333 65.3431 85.3333 67C85.3333 68.6569 87.1242 70 89.3333 70ZM72 67C72 68.6569 70.2091 70 68 70C65.7909 70 64 68.6569 64 67C64 65.3431 65.7909 64 68 64C70.2091 64 72 65.3431 72 67ZM46.6667 70C48.8758 70 50.6667 68.6569 50.6667 67C50.6667 65.3431 48.8758 64 46.6667 64C44.4575 64 42.6667 65.3431 42.6667 67C42.6667 68.6569 44.4575 70 46.6667 70ZM29.3333 67C29.3333 68.6569 27.5425 70 25.3333 70C23.1242 70 21.3333 68.6569 21.3333 67C21.3333 65.3431 23.1242 64 25.3333 64C27.5425 64 29.3333 65.3431 29.3333 67ZM4 70C6.20914 70 8 68.6569 8 67C8 65.3431 6.20914 64 4 64C1.79086 64 0 65.3431 0 67C0 68.6569 1.79086 70 4 70ZM89.3333 54C91.5425 54 93.3333 52.6569 93.3333 51C93.3333 49.3431 91.5425 48 89.3333 48C87.1242 48 85.3333 49.3431 85.3333 51C85.3333 52.6569 87.1242 54 89.3333 54ZM72 51C72 52.6569 70.2091 54 68 54C65.7909 54 64 52.6569 64 51C64 49.3431 65.7909 48 68 48C70.2091 48 72 49.3431 72 51ZM46.6667 54C48.8758 54 50.6667 52.6569 50.6667 51C50.6667 49.3431 48.8758 48 46.6667 48C44.4575 48 42.6667 49.3431 42.6667 51C42.6667 52.6569 44.4575 54 46.6667 54ZM29.3333 51C29.3333 52.6569 27.5425 54 25.3333 54C23.1242 54 21.3333 52.6569 21.3333 51C21.3333 49.3431 23.1242 48 25.3333 48C27.5425 48 29.3333 49.3431 29.3333 51ZM4 54C6.20914 54 8 52.6569 8 51C8 49.3431 6.20914 48 4 48C1.79086 48 0 49.3431 0 51C0 52.6569 1.79086 54 4 54ZM89.3333 38C91.5425 38 93.3333 36.6569 93.3333 35C93.3333 33.3431 91.5425 32 89.3333 32C87.1242 32 85.3333 33.3431 85.3333 35C85.3333 36.6569 87.1242 38 89.3333 38ZM72 35C72 36.6569 70.2091 38 68 38C65.7909 38 64 36.6569 64 35C64 33.3431 65.7909 32 68 32C70.2091 32 72 33.3431 72 35ZM46.6667 38C48.8758 38 50.6667 36.6569 50.6667 35C50.6667 33.3431 48.8758 32 46.6667 32C44.4575 32 42.6667 33.3431 42.6667 35C42.6667 36.6569 44.4575 38 46.6667 38ZM29.3333 35C29.3333 36.6569 27.5425 38 25.3333 38C23.1242 38 21.3333 36.6569 21.3333 35C21.3333 33.3431 23.1242 32 25.3333 32C27.5425 32 29.3333 33.3431 29.3333 35ZM4 38C6.20914 38 8 36.6569 8 35C8 33.3431 6.20914 32 4 32C1.79086 32 0 33.3431 0 35C0 36.6569 1.79086 38 4 38ZM89.3333 22C91.5425 22 93.3333 20.6569 93.3333 19C93.3333 17.3431 91.5425 16 89.3333 16C87.1242 16 85.3333 17.3431 85.3333 19C85.3333 20.6569 87.1242 22 89.3333 22ZM72 19C72 20.6569 70.2091 22 68 22C65.7909 22 64 20.6569 64 19C64 17.3431 65.7909 16 68 16C70.2091 16 72 17.3431 72 19ZM46.6667 22C48.8758 22 50.6667 20.6569 50.6667 19C50.6667 17.3431 48.8758 16 46.6667 16C44.4575 16 42.6667 17.3431 42.6667 19C42.6667 20.6569 44.4575 22 46.6667 22ZM29.3333 19C29.3333 20.6569 27.5425 22 25.3333 22C23.1242 22 21.3333 20.6569 21.3333 19C21.3333 17.3431 23.1242 16 25.3333 16C27.5425 16 29.3333 17.3431 29.3333 19ZM4 22C6.20914 22 8 20.6569 8 19C8 17.3431 6.20914 16 4 16C1.79086 16 0 17.3431 0 19C0 20.6569 1.79086 22 4 22ZM89.3333 6C91.5425 6 93.3333 4.65685 93.3333 3C93.3333 1.34315 91.5425 0 89.3333 0C87.1242 0 85.3333 1.34315 85.3333 3C85.3333 4.65685 87.1242 6 89.3333 6ZM72 3C72 4.65685 70.2091 6 68 6C65.7909 6 64 4.65685 64 3C64 1.34315 65.7909 0 68 0C70.2091 0 72 1.34315 72 3ZM46.6667 6C48.8758 6 50.6667 4.65685 50.6667 3C50.6667 1.34315 48.8758 0 46.6667 0C44.4575 0 42.6667 1.34315 42.6667 3C42.6667 4.65685 44.4575 6 46.6667 6ZM29.3333 3C29.3333 4.65685 27.5425 6 25.3333 6C23.1242 6 21.3333 4.65685 21.3333 3C21.3333 1.34315 23.1242 0 25.3333 0C27.5425 0 29.3333 1.34315 29.3333 3ZM4 6C6.20914 6 8 4.65685 8 3C8 1.34315 6.20914 0 4 0C1.79086 0 0 1.34315 0 3C0 4.65685 1.79086 6 4 6Z" fill="#7282A0"/>
</svg>
