<svg width="20" height="20" viewBox="0 0 20 20" fill="none" xmlns="http://www.w3.org/2000/svg">
<path d="M17 0H3C2.20435 0 1.44129 0.395088 0.87868 1.09835C0.316071 1.80161 0 2.75544 0 3.75V16.25C0 17.2446 0.316071 18.1984 0.87868 18.9017C1.44129 19.6049 2.20435 20 3 20H17C17.7956 20 18.5587 19.6049 19.1213 18.9017C19.6839 18.1984 20 17.2446 20 16.25V3.75C20 2.75544 19.6839 1.80161 19.1213 1.09835C18.5587 0.395088 17.7956 0 17 0ZM16.427 2.5L10.6 8.5C10.4335 8.65837 10.2312 8.747 10.022 8.75329C9.81285 8.75957 9.60742 8.68318 9.435 8.535L3.573 2.5H16.427ZM17 17.5H3C2.73478 17.5 2.48043 17.3683 2.29289 17.1339C2.10536 16.8995 2 16.5815 2 16.25V4.125L8.2 10.5C8.71593 10.9829 9.34347 11.2431 9.988 11.2413C10.6551 11.24 11.3037 10.9675 11.836 10.465L18 4.125V16.25C18 16.5815 17.8946 16.8995 17.7071 17.1339C17.5196 17.3683 17.2652 17.5 17 17.5Z" fill="#393D46"/>
</svg>
