<svg width="22" height="17" viewBox="0 0 22 17" fill="none" xmlns="http://www.w3.org/2000/svg">
<path fill-rule="evenodd" clip-rule="evenodd" d="M21.0374 14.8968L19.8582 15.7812C19.4708 16.075 18.8374 16.075 18.4458 15.7812L14.2916 12.6656C14.1041 12.525 14 12.3343 14 12.1343V11.625C12.5291 12.4875 10.6791 13 8.66664 13C3.87914 13 0 10.0906 0 6.49998C0 2.90935 3.87914 0 8.66664 0C13.4541 0 17.3333 2.90935 17.3333 6.49998C17.3333 8.00935 16.6499 9.39685 15.4999 10.5H16.1791C16.4458 10.5 16.6999 10.5781 16.8874 10.7187L21.0416 13.8343C21.4291 14.1281 21.4291 14.6031 21.0374 14.8968ZM3.33331 6.49998C3.33331 8.71247 5.7208 10.5 8.66664 10.5C11.6166 10.5 14 8.70936 14 6.49998C14 4.2875 11.6125 2.5 8.66664 2.5C5.71665 2.5 3.33331 4.29061 3.33331 6.49998Z" fill="#959EAD"/>
</svg>
