<svg width="12" height="11" viewBox="0 0 12 11" fill="none" xmlns="http://www.w3.org/2000/svg">
<path d="M10.6215 8.58662C10.6215 8.44912 10.659 8.31787 10.7247 8.20537C10.7434 8.171 10.7684 8.13975 10.7903 8.1085C11.334 7.296 11.6528 6.32412 11.6528 5.28662C11.6622 2.40537 9.23092 0.0678711 6.22467 0.0678711C3.60279 0.0678711 1.4153 1.85225 0.902795 4.221C0.827795 4.56787 0.78717 4.921 0.78717 5.28975C0.78717 8.17412 3.12467 10.5741 6.13092 10.5741C6.60905 10.5741 7.2528 10.4304 7.60592 10.3335C7.95905 10.2366 8.30905 10.1085 8.39967 10.0741C8.49029 10.0397 8.5903 10.021 8.6903 10.021C8.8028 10.021 8.90905 10.0429 9.00592 10.0835L10.7778 10.7116C10.7778 10.7116 10.8528 10.7429 10.8997 10.7429C11.0372 10.7429 11.1497 10.6335 11.1497 10.4929C11.1497 10.4616 11.134 10.4085 11.134 10.4085L10.6215 8.58662Z" fill="#F79D1D"/>
<path d="M9.10596 6.8335C8.99346 6.86475 8.84971 6.89912 8.69346 6.9335C8.36533 7.00225 7.94658 7.07412 7.63096 7.07412C4.62471 7.07412 2.28721 4.67412 2.28721 1.78975C2.28721 1.5835 2.30908 1.321 2.33408 1.121C2.35283 0.986621 2.37471 0.852246 2.40596 0.720996C2.43721 0.580371 2.47471 0.439746 2.51533 0.302246L2.26533 0.524121C1.24033 1.41787 0.652832 2.69287 0.652832 4.021C0.652832 4.93662 0.918457 5.81787 1.42783 6.5835C1.49971 6.69287 1.54033 6.77725 1.52783 6.8335C1.51533 6.88975 1.15596 8.771 1.15596 8.771C1.13721 8.86162 1.17158 8.95225 1.24033 9.01162C1.28721 9.04912 1.34346 9.06787 1.39971 9.06787C1.43096 9.06787 1.46221 9.06162 1.49033 9.04912L3.24346 8.3585C3.29971 8.33662 3.35908 8.32412 3.42158 8.32412C3.42158 8.32412 3.49658 8.31787 3.61846 8.36475C4.20908 8.596 4.86221 8.73975 5.51533 8.73975C6.97158 8.73975 8.34033 8.11162 9.26846 7.01787C9.26846 7.01787 9.36846 6.88037 9.48408 6.71787C9.36846 6.7585 9.23721 6.79912 9.10596 6.8335Z" fill="#F79D1D"/>
</svg>

