<svg width="75" height="64" viewBox="0 0 75 64" fill="none" xmlns="http://www.w3.org/2000/svg">
<g clip-path="url(#clip0_144_315)">
<rect y="0.348633" width="75" height="63" rx="31.5" fill="#959EAD"/>
</g>
<path d="M37.9828 39.4995L38.9461 38.7146C39.3627 38.3787 39.3541 37.8306 38.9288 37.5018L33.6998 33.4428H46.1712C46.7484 33.4428 47.2127 33.0645 47.2127 32.5943V31.4629C47.2127 30.9926 46.7484 30.6143 46.1712 30.6143H33.6998L38.9288 26.5553C39.3497 26.2265 39.3584 25.6785 38.9461 25.3426L37.9828 24.5576C37.5792 24.2253 36.9196 24.2253 36.5118 24.5576L28.076 31.431C27.668 31.7599 27.668 32.2973 28.076 32.6296L36.5118 39.4995C36.9153 39.8319 37.5749 39.8319 37.9828 39.4995Z" fill="white"/>
<defs>
<clipPath id="clip0_144_315">
<rect width="74.9849" height="63.36" fill="white" transform="translate(0 0.348633)"/>
</clipPath>
</defs>
</svg>
