<svg width="75" height="64" viewBox="0 0 75 64" fill="none" xmlns="http://www.w3.org/2000/svg">
<g clip-path="url(#clip0_144_310)">
<rect x="0.0150146" y="0.348633" width="75" height="63" rx="31.5" fill="#959EAD"/>
</g>
<path d="M38.4882 39.4995L46.924 32.6261C47.3319 32.2973 47.3319 31.7599 46.924 31.4275L38.4882 24.5576C38.0847 24.2253 37.4251 24.2253 37.0172 24.5576L36.0538 25.3426C35.6373 25.6785 35.6459 26.2265 36.0712 26.5553L41.3002 30.6143H28.8287C28.2516 30.6143 27.7873 30.9926 27.7873 31.4629V32.5943C27.7873 33.0645 28.2516 33.4428 28.8287 33.4428H41.3002L36.0712 37.5018C35.6503 37.8306 35.6416 38.3787 36.0538 38.7146L37.0172 39.4995C37.4207 39.8319 38.0803 39.8319 38.4882 39.4995Z" fill="white"/>
<defs>
<clipPath id="clip0_144_310">
<rect width="74.9849" height="63.36" fill="white" transform="translate(0.0150146 0.348633)"/>
</clipPath>
</defs>
</svg>
