<svg width="56" height="56" viewBox="0 0 56 56" fill="none" xmlns="http://www.w3.org/2000/svg">
<path d="M43.7197 17.1384C43.5307 16.6659 43.2409 16.2404 42.8706 15.8914C42.5002 15.5424 42.0582 15.2784 41.5754 15.1177L36.0617 13.279L34.5894 10.3344C34.3001 9.75176 33.8535 9.26177 33.3 8.91991C32.7466 8.57805 32.1086 8.39796 31.4581 8.40004H25.0087C24.3582 8.39796 23.7202 8.57805 23.1668 8.91991C22.6133 9.26177 22.1667 9.75176 21.8774 10.3344L20.4051 13.279L14.8914 15.1177C14.4086 15.2784 13.9666 15.5424 13.5962 15.8914C13.2259 16.2404 12.9361 16.6659 12.7471 17.1384L8.81773 26.964C8.54053 27.653 8.39872 28.389 8.40006 29.1317V43.4C8.40006 44.0189 8.6459 44.6124 9.08348 45.0499C9.52107 45.4875 10.1146 45.7334 10.7334 45.7334H13.0667C13.6856 45.7334 14.2791 45.4875 14.7166 45.0499C15.1542 44.6124 15.4001 44.0189 15.4001 43.4V40.0727L16.5667 36.1807V38.7987C16.6355 40.1141 17.037 41.3906 17.7334 42.5087V45.7334C17.7334 46.3522 17.9792 46.9457 18.4168 47.3833C18.8544 47.8209 19.4479 48.0667 20.0667 48.0667H36.4001C37.0189 48.0667 37.6124 47.8209 38.05 47.3833C38.4876 46.9457 38.7334 46.3522 38.7334 45.7334V42.5087C39.4299 41.3907 39.8314 40.1142 39.9001 38.7987V36.1807L41.0667 40.0727V43.4C41.0667 44.0189 41.3126 44.6124 41.7501 45.0499C42.1877 45.4875 42.7812 45.7334 43.4001 45.7334H45.7334C46.3522 45.7334 46.9457 45.4875 47.3833 45.0499C47.8209 44.6124 48.0667 44.0189 48.0667 43.4V29.1317C48.0683 28.3898 47.9265 27.6545 47.6491 26.9664L43.7197 17.1384ZM41.0411 17.4534C39.7967 19.3246 38.657 21.2635 37.6274 23.261C37.5037 23.7277 37.6087 23.1864 37.5667 36.4C36.6385 36.4 35.7482 36.0313 35.0919 35.3749C34.4355 34.7185 34.0667 33.8283 34.0667 32.9C34.0667 32.5906 33.9438 32.2939 33.725 32.0751C33.5062 31.8563 33.2095 31.7334 32.9001 31.7334C32.5906 31.7334 32.2939 31.8563 32.0751 32.0751C31.8563 32.2939 31.7334 32.5906 31.7334 32.9C31.7334 34.4471 32.348 35.9309 33.4419 37.0248C34.5359 38.1188 36.0196 38.7334 37.5667 38.7334V38.7987C37.5183 39.6028 37.2705 40.3822 36.8457 41.0667H29.4001V19.5254L35.4061 15.5214C42.0701 17.787 40.5767 17.1827 41.0411 17.4534ZM23.3334 12.6607L24.7777 15.1877L22.7477 13.8344L23.3334 12.6607ZM33.1521 12.6607L33.7377 13.8274L31.7077 15.1807L33.1521 12.6607ZM31.5514 10.7567L28.2334 16.548L24.9247 10.7567C25.3984 10.7334 31.0661 10.7334 31.5421 10.7567H31.5514ZM21.0607 15.5214L27.0667 19.5254V41.0667H19.6211C19.1928 40.3838 18.9447 39.6035 18.9001 38.7987V38.7334C20.4472 38.7334 21.9309 38.1188 23.0249 37.0248C24.1188 35.9309 24.7334 34.4471 24.7334 32.9C24.7334 32.5906 24.6105 32.2939 24.3917 32.0751C24.1729 31.8563 23.8762 31.7334 23.5667 31.7334C23.2573 31.7334 22.9606 31.8563 22.7418 32.0751C22.523 32.2939 22.4001 32.5906 22.4001 32.9C22.4001 33.8283 22.0313 34.7185 21.3749 35.3749C20.7186 36.0313 19.8283 36.4 18.9001 36.4C18.8581 23.1887 18.9631 23.716 18.8394 23.261C17.8105 21.2631 16.6709 19.3242 15.4257 17.4534C15.7827 17.2434 18.6807 16.3334 21.0607 15.5214ZM10.7334 43.4V41.0667H13.0667V43.4H10.7334ZM16.4197 28.5554L13.3654 38.7334H10.7334V29.1317C10.7332 28.6865 10.8179 28.2454 10.9831 27.832L14.1634 19.8847L16.5667 23.8887V27.5497C16.5669 27.8903 16.5174 28.2291 16.4197 28.5554ZM20.0667 45.7334V43.4H36.4001V45.7334H20.0667ZM39.9001 27.5497V23.8887L42.3034 19.8847L45.4837 27.8344C45.6493 28.2468 45.7341 28.6873 45.7334 29.1317V38.7334H43.1014L40.0471 28.553C39.9492 28.2276 39.8997 27.8895 39.9001 27.5497ZM43.4001 43.4V41.0667H45.7334V43.4H43.4001Z" fill="#393D46"/>
</svg>
