<svg width="14" height="14" viewBox="0 0 14 14" fill="none" xmlns="http://www.w3.org/2000/svg">
<path d="M12.4403 0.0678711H8.59964C8.4809 0.0678711 8.36527 0.114746 8.2809 0.199121L0.602771 7.87725C0.252771 8.22725 0.252771 8.79912 0.602771 9.14912L4.25902 12.8054C4.60902 13.1554 5.1809 13.1554 5.5309 12.8054L13.2059 5.13037C13.2903 5.046 13.3371 4.93037 13.3371 4.81162V0.967871C13.3403 0.470996 12.9371 0.0678711 12.4403 0.0678711ZM10.9496 3.56162C10.3121 3.63037 9.7809 3.096 9.84652 2.4585C9.89652 1.996 10.2684 1.621 10.7309 1.57412C11.3684 1.50537 11.8996 2.03975 11.834 2.67725C11.784 3.13975 11.4121 3.51162 10.9496 3.56162Z" fill="#F79D1D"/>
</svg>
