<svg width="23" height="19" viewBox="0 0 23 19" fill="none" xmlns="http://www.w3.org/2000/svg">
<ellipse opacity="0.15" cx="11.7521" cy="9.61173" rx="11.1089" ry="9.05143" fill="#36B37E"/>
<path d="M10.2694 12.4964L7.24993 10.0509C7.16556 9.9821 7.12337 9.89371 7.12337 9.78567C7.12337 9.67764 7.16556 9.58924 7.24993 9.52049L7.91892 8.99014C8.0033 8.91157 8.10877 8.87229 8.23534 8.87229C8.3619 8.87229 8.4734 8.91157 8.56983 8.99014L10.5949 10.6401L14.9343 7.10443C15.0307 7.02586 15.1422 6.98657 15.2688 6.98657C15.3953 6.98657 15.5008 7.02586 15.5852 7.10443L16.2542 7.63478C16.3386 7.70353 16.3807 7.79193 16.3807 7.89996C16.3807 8.008 16.3386 8.09639 16.2542 8.16514L10.9203 12.4964C10.836 12.575 10.7275 12.6142 10.5949 12.6142C10.4623 12.6142 10.3538 12.575 10.2694 12.4964Z" fill="#36B37E"/>
</svg>
