<svg width="109" height="90" viewBox="0 0 109 90" fill="none" xmlns="http://www.w3.org/2000/svg">
<path d="M99.0017 90H9.79825C4.60721 90 0.399994 86.494 0.399994 82.1681V7.83188C0.399994 3.50601 4.60721 0 9.79825 0H99.0017C104.193 0 108.4 3.50601 108.4 7.83188V82.1681C108.4 86.494 104.193 90 99.0017 90Z" fill="url(#paint0_linear_1671_328)"/>
<path d="M0.399994 74.0508V82.169C0.399994 86.4949 4.60721 90.0009 9.79825 90.0009H99.0017C104.193 90.0009 108.4 86.4949 108.4 82.169V74.0508H0.399994Z" fill="url(#paint1_linear_1671_328)"/>
<path d="M99.0017 0H9.79825C4.60721 0 0.399994 3.50601 0.399994 7.83188V17.9997H108.4V7.83188C108.4 3.50601 104.193 0 99.0017 0Z" fill="url(#paint2_linear_1671_328)"/>
<path d="M0.399994 20.2534H108.4V22.3951H0.399994V20.2534Z" fill="url(#paint3_linear_1671_328)"/>
<path d="M78.0952 8.99837C78.0952 10.5914 76.5453 11.883 74.6337 11.883C72.7221 11.883 71.1722 10.5914 71.1722 8.99837C71.1722 7.40535 72.7221 6.11377 74.6337 6.11377C76.5453 6.11377 78.0952 7.40535 78.0952 8.99837V8.99837Z" fill="url(#paint4_radial_1671_328)"/>
<path d="M89.132 8.99837C89.132 10.5914 87.5821 11.883 85.6704 11.883C83.7588 11.883 82.2089 10.5914 82.2089 8.99837C82.2089 7.40535 83.7588 6.11377 85.6704 6.11377C87.5821 6.11377 89.132 7.40535 89.132 8.99837Z" fill="url(#paint5_radial_1671_328)"/>
<path d="M100.169 8.99837C100.169 10.5914 98.6194 11.883 96.7078 11.883C94.7961 11.883 93.2462 10.5914 93.2462 8.99837C93.2462 7.40535 94.7961 6.11377 96.7078 6.11377C98.6194 6.11377 100.169 7.40535 100.169 8.99837V8.99837Z" fill="url(#paint6_linear_1671_328)"/>
<path d="M108.4 82.1689V46.9137L92.79 33.9059C91.1667 32.2113 88.6684 31.125 85.8636 31.125H22.9367C18.0423 31.125 14.074 34.4312 14.074 38.5099V57.9371C14.074 60.2738 15.3784 62.3557 17.4111 63.7091L48.9619 90.0007H99.0027C104.193 90.0007 108.4 86.4947 108.4 82.1689Z" fill="url(#paint7_linear_1671_328)"/>
<path d="M85.8636 65.322H22.9367C18.0423 65.322 14.074 62.0158 14.074 57.9364V38.5099C14.074 34.4312 18.0415 31.125 22.9367 31.125H85.8636C90.758 31.125 94.7263 34.4312 94.7263 38.5099V57.9371C94.7263 62.0158 90.7589 65.322 85.8636 65.322V65.322Z" fill="url(#paint8_linear_1671_328)"/>
<path d="M23.9121 58.4123C23.9121 58.2852 23.9253 58.1905 23.9509 58.1266L31.5248 37.5266C31.8478 36.7644 32.7526 36.3833 34.2365 36.3833C35.7469 36.3833 36.664 36.7383 36.9886 37.4483L44.5403 58.0442C44.5906 58.1781 44.6161 58.2777 44.6161 58.3443C44.6161 58.7432 44.3195 59.0879 43.7271 59.3756C43.1346 59.664 42.506 59.8082 41.8427 59.8082C41.0393 59.8082 40.5416 59.5782 40.348 59.1168L38.7684 54.5643H29.3924L27.8326 59.1044C27.6546 59.5741 27.185 59.8082 26.4244 59.8082C25.8155 59.8082 25.2445 59.6716 24.7114 59.3962C24.1791 59.1209 23.9121 58.7927 23.9121 58.4123V58.4123ZM30.3103 51.8939H37.8818L34.0577 40.9852L30.3103 51.8939Z" fill="url(#paint9_linear_1671_328)"/>
<path d="M47.3189 58.7281V37.655C47.3189 37.3584 47.4903 37.1043 47.8339 36.8921C48.1775 36.6806 48.6027 36.5742 49.1119 36.5742H55.8627C58.4558 36.5742 60.5347 37.1469 62.0986 38.2908C63.6625 39.4348 64.4436 41.2256 64.4436 43.6625V52.7207C64.4436 55.1576 63.6625 56.9477 62.0986 58.0923C60.5347 59.2363 58.4558 59.8082 55.8627 59.8082H49.1119C48.6027 59.8082 48.1767 59.7032 47.8339 59.491C47.4903 59.2795 47.3189 59.0248 47.3189 58.7281V58.7281ZM51.3622 56.8213H55.8627C58.8884 56.8213 60.4012 55.4542 60.4012 52.7207V43.6625C60.4012 40.9289 58.8884 39.5625 55.8627 39.5625H51.3622V56.8213Z" fill="url(#paint10_linear_1671_328)"/>
<path d="M67.7623 56.3096C67.7623 55.9073 67.9403 55.5049 68.2962 55.1018C68.6522 54.6994 69.0592 54.4976 69.5165 54.4976C69.7959 54.4976 70.1329 54.6342 70.5276 54.9054C70.9214 55.1774 71.3095 55.4706 71.691 55.785C72.0717 56.1002 72.6501 56.3934 73.4263 56.6653C74.2017 56.9365 75.0726 57.0725 76.0391 57.0725C77.4885 57.0725 78.6519 56.7848 79.5287 56.2094C80.4062 55.6347 80.8445 54.7928 80.8445 53.6853C80.8445 52.6629 80.4185 51.8107 79.5674 51.1289C78.7154 50.4477 77.6854 49.9039 76.4775 49.4988C75.2704 49.0944 74.0558 48.6577 72.8355 48.1887C71.6152 47.7197 70.5786 47.0173 69.7267 46.08C68.8747 45.1427 68.4495 43.9706 68.4495 42.5644C68.4495 41.4444 68.7099 40.4722 69.2314 39.6475C69.7522 38.8228 70.4575 38.1891 71.3482 37.7448C72.2381 37.3005 73.1725 36.9785 74.1514 36.778C75.1303 36.5775 76.166 36.4766 77.2603 36.4766C77.9466 36.4766 78.6643 36.5136 79.4149 36.5864C80.1648 36.6606 80.908 36.7807 81.6463 36.9483C82.3837 37.1158 82.9935 37.3568 83.4771 37.6713C83.96 37.9858 84.2014 38.3422 84.2014 38.7397C84.2014 39.138 84.049 39.5397 83.7441 39.9441C83.4392 40.3492 83.0314 40.5511 82.5238 40.5511C82.2692 40.5511 81.9256 40.4502 81.4938 40.2476C81.0612 40.0451 80.4828 39.8432 79.7585 39.6406C79.0334 39.4381 78.2004 39.3371 77.2603 39.3371C75.8109 39.3371 74.6532 39.5775 73.7897 40.056C72.9245 40.536 72.4927 41.2652 72.4927 42.2458C72.4927 42.8843 72.721 43.433 73.1791 43.891C73.6364 44.349 74.228 44.7273 74.9523 45.0253C75.6774 45.324 76.4841 45.6172 77.3748 45.9042C78.2647 46.1919 79.148 46.527 80.0255 46.9108C80.9022 47.294 81.7031 47.7362 82.4282 48.2374C83.1525 48.7373 83.7441 49.4246 84.2014 50.298C84.6595 51.1715 84.8886 52.1836 84.8886 53.3337C84.8886 55.5234 84.0935 57.192 82.5049 58.3394C80.9146 59.4867 78.811 60.0601 76.1924 60.0601C73.8523 60.0601 71.8632 59.6522 70.2235 58.8365C68.5822 58.0208 67.7623 57.1789 67.7623 56.3096V56.3096Z" fill="url(#paint11_linear_1671_328)"/>
<defs>
<linearGradient id="paint0_linear_1671_328" x1="35.4961" y1="29.2467" x2="96.5428" y2="102.503" gradientUnits="userSpaceOnUse">
<stop stop-color="#FFFCF8"/>
<stop offset="0.1875" stop-color="#FAF8F6"/>
<stop offset="0.4041" stop-color="#ECEEF2"/>
<stop offset="0.6353" stop-color="#D5DCEA"/>
<stop offset="0.875" stop-color="#B5C4DF"/>
<stop offset="1" stop-color="#A1B5D8"/>
</linearGradient>
<linearGradient id="paint1_linear_1671_328" x1="54.4" y1="83.3067" x2="54.4" y2="94.4238" gradientUnits="userSpaceOnUse">
<stop stop-color="#A1B5D8" stop-opacity="0"/>
<stop offset="0.0343" stop-color="#9FB3D5" stop-opacity="0.035294"/>
<stop offset="0.4515" stop-color="#8898AF" stop-opacity="0.45098"/>
<stop offset="0.788" stop-color="#798898" stop-opacity="0.788235"/>
<stop offset="1" stop-color="#748290"/>
</linearGradient>
<linearGradient id="paint2_linear_1671_328" x1="54.4" y1="10.4453" x2="54.4" y2="22.9915" gradientUnits="userSpaceOnUse">
<stop stop-color="#3B395F"/>
<stop offset="0.0633" stop-color="#37355A"/>
<stop offset="0.4033" stop-color="#232543"/>
<stop offset="0.7232" stop-color="#171B35"/>
<stop offset="1" stop-color="#131830"/>
</linearGradient>
<linearGradient id="paint3_linear_1671_328" x1="54.4" y1="20.2532" x2="54.4" y2="22.3952" gradientUnits="userSpaceOnUse">
<stop stop-color="#FFFCF8"/>
<stop offset="0.1875" stop-color="#FAF8F6"/>
<stop offset="0.4041" stop-color="#ECEEF2"/>
<stop offset="0.6353" stop-color="#D5DCEA"/>
<stop offset="0.875" stop-color="#B5C4DF"/>
<stop offset="1" stop-color="#A1B5D8"/>
</linearGradient>
<radialGradient id="paint4_radial_1671_328" cx="0" cy="0" r="1" gradientUnits="userSpaceOnUse" gradientTransform="translate(74.6337 8.99851) scale(3.46142 2.88452)">
<stop stop-color="#00E7B2"/>
<stop offset="0.3524" stop-color="#03E6B1"/>
<stop offset="0.5753" stop-color="#0BE1AF"/>
<stop offset="0.7622" stop-color="#1ADAAA"/>
<stop offset="0.9283" stop-color="#2FCFA4"/>
<stop offset="1" stop-color="#3AC9A0"/>
</radialGradient>
<radialGradient id="paint5_radial_1671_328" cx="0" cy="0" r="1" gradientUnits="userSpaceOnUse" gradientTransform="translate(84.3998 6.70439) scale(6.10823 5.09019)">
<stop stop-color="#FFC738"/>
<stop offset="0.4873" stop-color="#FFC636"/>
<stop offset="0.6746" stop-color="#FFC22F"/>
<stop offset="0.8103" stop-color="#FFBB23"/>
<stop offset="0.9203" stop-color="#FFB112"/>
<stop offset="1" stop-color="#FFA700"/>
</radialGradient>
<linearGradient id="paint6_linear_1671_328" x1="95.0808" y1="6.28691" x2="97.2736" y2="11.5497" gradientUnits="userSpaceOnUse">
<stop stop-color="#FF4974"/>
<stop offset="0.3262" stop-color="#FE4672"/>
<stop offset="0.5324" stop-color="#FB3E6C"/>
<stop offset="0.7054" stop-color="#F52F60"/>
<stop offset="0.8591" stop-color="#EE1A51"/>
<stop offset="1" stop-color="#E4003D"/>
</linearGradient>
<linearGradient id="paint7_linear_1671_328" x1="71.1822" y1="74.8189" x2="49.4555" y2="6.51765" gradientUnits="userSpaceOnUse">
<stop stop-color="#A1B5D8" stop-opacity="0"/>
<stop offset="0.0343" stop-color="#9FB3D5" stop-opacity="0.035294"/>
<stop offset="0.4515" stop-color="#8898AF" stop-opacity="0.45098"/>
<stop offset="0.788" stop-color="#798898" stop-opacity="0.788235"/>
<stop offset="1" stop-color="#748290"/>
</linearGradient>
<linearGradient id="paint8_linear_1671_328" x1="39.6119" y1="27.0711" x2="60.9718" y2="71.066" gradientUnits="userSpaceOnUse">
<stop stop-color="#FF4974"/>
<stop offset="0.3262" stop-color="#FE4672"/>
<stop offset="0.5324" stop-color="#FB3E6C"/>
<stop offset="0.7054" stop-color="#F52F60"/>
<stop offset="0.8591" stop-color="#EE1A51"/>
<stop offset="1" stop-color="#E4003D"/>
</linearGradient>
<linearGradient id="paint9_linear_1671_328" x1="34.2645" y1="43.7018" x2="34.2645" y2="65.2573" gradientUnits="userSpaceOnUse">
<stop stop-color="#FFC738"/>
<stop offset="0.4286" stop-color="#FFBB23"/>
<stop offset="1" stop-color="#FFA700"/>
</linearGradient>
<linearGradient id="paint10_linear_1671_328" x1="55.8817" y1="43.7025" x2="55.8817" y2="65.258" gradientUnits="userSpaceOnUse">
<stop stop-color="#FFC738"/>
<stop offset="0.4286" stop-color="#FFBB23"/>
<stop offset="1" stop-color="#FFA700"/>
</linearGradient>
<linearGradient id="paint11_linear_1671_328" x1="76.3248" y1="43.6996" x2="76.3248" y2="65.2551" gradientUnits="userSpaceOnUse">
<stop stop-color="#FFC738"/>
<stop offset="0.4286" stop-color="#FFBB23"/>
<stop offset="1" stop-color="#FFA700"/>
</linearGradient>
</defs>
</svg>
