<svg width="109" height="91" viewBox="0 0 109 91" fill="none" xmlns="http://www.w3.org/2000/svg">
<path d="M92.5837 13.1802L71.3721 30.8566C67.0279 27.2367 61.027 24.9971 54.4 24.9971V0C69.3108 0 82.8129 5.03541 92.5837 13.1802V13.1802Z" fill="url(#paint0_linear_1671_281)"/>
<path d="M37.4279 30.857C33.0838 34.4771 30.3965 39.478 30.3965 45.0004H0.399994C0.399994 32.5748 6.4427 21.323 16.2163 13.1807L37.4279 30.857Z" fill="url(#paint1_linear_1671_281)"/>
<path d="M54.4 0V24.9971C47.773 24.9971 41.772 27.2365 37.4279 30.8566L16.2162 13.1802C25.987 5.03541 39.4892 0 54.4 0V0Z" fill="url(#paint2_linear_1671_281)"/>
<path d="M108.4 45.0004H78.4034C78.4034 39.478 75.7161 34.4771 71.372 30.857L92.5836 13.1807C102.357 21.323 108.4 32.5748 108.4 45.0004Z" fill="url(#paint3_linear_1671_281)"/>
<path d="M108.4 45C108.4 57.4256 102.357 68.6774 92.5836 76.8198L71.372 59.1434C75.7161 55.5233 78.4034 50.5225 78.4034 45H108.4Z" fill="url(#paint4_linear_1671_281)"/>
<path d="M37.4279 59.1434L16.2163 76.8198C6.4427 68.6774 0.399994 57.4256 0.399994 45H30.3965C30.3965 50.5225 33.0838 55.5233 37.4279 59.1434V59.1434Z" fill="url(#paint5_linear_1671_281)"/>
<path d="M92.5837 76.8209C82.8129 84.9657 69.3108 90.0011 54.4 90.0011V65.0041C61.027 65.0041 67.0279 62.7646 71.3721 59.1445L92.5837 76.8209Z" fill="url(#paint6_linear_1671_281)"/>
<path d="M54.4 65.0003V89.9974C39.4892 89.9974 25.987 84.962 16.2162 76.8172L37.4281 59.1406C41.772 62.7607 47.773 65.0003 54.4 65.0003V65.0003Z" fill="url(#paint7_linear_1671_281)"/>
<path d="M83.366 20.8608L71.3721 30.8558C67.0279 27.2358 61.027 24.9962 54.4 24.9962V10.8638C65.7129 10.8638 75.9509 14.684 83.366 20.8608V20.8608Z" fill="url(#paint8_linear_1671_281)"/>
<path d="M37.4277 30.8548C33.0836 34.4749 30.3963 39.4757 30.3963 44.9982H13.4373C13.4373 35.5708 18.0214 27.0392 25.4338 20.8599L37.4277 30.8548Z" fill="url(#paint9_linear_1671_281)"/>
<path d="M54.3999 10.8638V24.9962C47.7729 24.9962 41.772 27.2357 37.4278 30.8558L25.4339 20.8608C32.849 14.684 43.087 10.8638 54.3999 10.8638V10.8638Z" fill="url(#paint10_linear_1671_281)"/>
<path d="M95.3623 44.9982H78.4033C78.4033 39.4757 75.716 34.4749 71.3719 30.8548L83.3658 20.8599C90.778 27.0392 95.3623 35.5708 95.3623 44.9982V44.9982Z" fill="url(#paint11_linear_1671_281)"/>
<path d="M95.3624 45C95.3624 54.4274 90.7783 62.9591 83.3659 69.1383L71.372 59.1434C75.7161 55.5233 78.4034 50.5226 78.4034 45H95.3624Z" fill="url(#paint12_linear_1671_281)"/>
<path d="M37.4277 59.1434L25.4338 69.1383C18.0214 62.9591 13.4373 54.4274 13.4373 45H30.3963C30.3963 50.5225 33.0836 55.5233 37.4277 59.1434Z" fill="url(#paint13_linear_1671_281)"/>
<path d="M83.3662 69.1361C75.9513 75.3131 65.7133 79.1331 54.4002 79.1331V65.0006C61.0272 65.0006 67.0282 62.7612 71.3723 59.1411L83.3662 69.1361Z" fill="url(#paint14_linear_1671_281)"/>
<path d="M54.3998 65.0006V79.1331C43.0869 79.1331 32.849 75.3131 25.4338 69.1361L37.4277 59.1411C41.7719 62.7611 47.7729 65.0006 54.3998 65.0006V65.0006Z" fill="url(#paint15_linear_1671_281)"/>
<path d="M54.3999 90.0009C69.3107 90.0009 82.8128 84.9655 92.5836 76.8207C100.813 69.9648 106.396 60.9043 107.955 50.795L77.723 25.6013L71.3934 30.8758C75.7246 34.4946 78.4032 39.4874 78.4032 45.0007C78.4032 50.5232 75.7159 55.524 71.3718 59.1441C67.0278 62.7643 61.0269 65.0038 54.3999 65.0038C47.7839 65.0038 41.7925 62.7717 37.45 59.1623L16.2382 76.8388C26.0075 84.9727 39.5001 90.0009 54.3999 90.0009V90.0009Z" fill="url(#paint16_linear_1671_281)"/>
<path d="M54.4 65.2098C67.7941 65.2098 78.6521 56.1614 78.6521 44.9997C78.6521 33.8379 67.7941 24.7896 54.4 24.7896C41.0059 24.7896 30.1478 33.8379 30.1478 44.9997C30.1478 56.1614 41.0059 65.2098 54.4 65.2098Z" fill="url(#paint17_linear_1671_281)"/>
<path d="M26.2051 73.0021L20.8354 68.5273L30.6041 60.3867L35.9738 64.8615L26.2051 73.0021Z" fill="url(#paint18_linear_1671_281)"/>
<path d="M77.723 25.5978C64.9165 14.9257 44.152 14.9257 31.3453 25.5978C18.5388 36.2699 18.5388 53.5737 31.3453 64.2459C44.1517 74.918 64.9138 74.9159 77.7205 64.2438C90.5271 53.5717 90.5297 36.27 77.723 25.5978ZM38.7805 58.05C30.0787 50.7985 30.0812 39.0433 38.7805 31.7939C47.4824 24.5423 61.5861 24.5423 70.288 31.7939C78.9872 39.0433 78.9898 50.7985 70.288 58.05C61.5887 65.2994 47.4798 65.2994 38.7805 58.05Z" fill="url(#paint19_linear_1671_281)"/>
<path d="M34.6557 61.4822C45.6347 70.6314 63.4343 70.6314 74.4131 61.4822C85.3918 52.3331 85.3895 37.5022 74.4105 28.3532C63.4341 19.2062 45.637 19.2041 34.6583 28.3532C23.6795 37.5024 23.6793 52.3352 34.6557 61.4822V61.4822ZM70.2881 31.7886C78.9899 39.0401 78.9874 50.7954 70.2881 58.0448C61.5863 65.2963 47.4825 65.2963 38.7807 58.0448C30.0814 50.7954 30.0789 39.0401 38.7807 31.7886C47.48 24.5392 61.5888 24.5392 70.2881 31.7886V31.7886Z" fill="url(#paint20_linear_1671_281)"/>
<path d="M2.25587 84.8566L6.60785 88.4833C8.49488 90.0558 11.5542 90.0558 13.4413 88.4833L14.2108 87.842C15.838 86.486 17.2134 84.9353 18.2915 83.2412C19.3696 81.5471 20.745 79.9964 22.3722 78.6404L27.5459 74.3291C29.1559 72.9874 29.1559 70.812 27.5459 69.4703L25.0718 67.4086C23.4618 66.0669 20.8514 66.0669 19.2413 67.4086L14.0675 71.7194C12.4403 73.0754 10.5795 74.2216 8.54655 75.12C6.51361 76.0184 4.65284 77.1646 3.02564 78.5206L2.25608 79.1619C0.368837 80.7344 0.368837 83.2841 2.25587 84.8566V84.8566Z" fill="url(#paint21_linear_1671_281)"/>
<defs>
<linearGradient id="paint0_linear_1671_281" x1="48.5549" y1="-1.69218" x2="77.8177" y2="33.423" gradientUnits="userSpaceOnUse">
<stop stop-color="#FFF5D9"/>
<stop offset="1" stop-color="#FFCE47"/>
</linearGradient>
<linearGradient id="paint1_linear_1671_281" x1="7.28214" y1="28.2355" x2="20.3803" y2="43.9534" gradientUnits="userSpaceOnUse">
<stop stop-color="#6FA953"/>
<stop offset="1" stop-color="#43765A"/>
</linearGradient>
<linearGradient id="paint2_linear_1671_281" x1="33.3429" y1="4.95247" x2="50.5563" y2="25.6085" gradientUnits="userSpaceOnUse">
<stop stop-color="#E4E08E"/>
<stop offset="1" stop-color="#6FA953"/>
</linearGradient>
<linearGradient id="paint3_linear_1671_281" x1="71.6435" y1="17.5488" x2="99.5813" y2="51.0742" gradientUnits="userSpaceOnUse">
<stop stop-color="#FFCE47"/>
<stop offset="1" stop-color="#FF9356"/>
</linearGradient>
<linearGradient id="paint4_linear_1671_281" x1="79.2153" y1="43.1795" x2="95.4115" y2="62.6149" gradientUnits="userSpaceOnUse">
<stop stop-color="#FF9356"/>
<stop offset="1" stop-color="#FF755C"/>
</linearGradient>
<linearGradient id="paint5_linear_1671_281" x1="4.43496" y1="45.1837" x2="23.4929" y2="68.0533" gradientUnits="userSpaceOnUse">
<stop stop-color="#7ACBFF"/>
<stop offset="1" stop-color="#45A2E0"/>
</linearGradient>
<linearGradient id="paint6_linear_1671_281" x1="54.3621" y1="67.4695" x2="70.3501" y2="86.6552" gradientUnits="userSpaceOnUse">
<stop stop-color="#FF755C"/>
<stop offset="1" stop-color="#FF4181"/>
</linearGradient>
<linearGradient id="paint7_linear_1671_281" x1="21.0667" y1="59.0409" x2="59.7271" y2="105.434" gradientUnits="userSpaceOnUse">
<stop stop-color="#FF4181"/>
<stop offset="1" stop-color="#843561"/>
</linearGradient>
<linearGradient id="paint8_linear_1671_281" x1="71.3901" y1="40.3391" x2="67.8682" y2="5.12059" gradientUnits="userSpaceOnUse">
<stop stop-color="#FFF5D9"/>
<stop offset="1" stop-color="#FFCE47"/>
</linearGradient>
<linearGradient id="paint9_linear_1671_281" x1="32.5489" y1="43.8568" x2="10.227" y2="17.0705" gradientUnits="userSpaceOnUse">
<stop stop-color="#6FA953"/>
<stop offset="1" stop-color="#43765A"/>
</linearGradient>
<linearGradient id="paint10_linear_1671_281" x1="51.5951" y1="25.5941" x2="31.7298" y2="1.75582" gradientUnits="userSpaceOnUse">
<stop stop-color="#E4E08E"/>
<stop offset="1" stop-color="#6FA953"/>
</linearGradient>
<linearGradient id="paint11_linear_1671_281" x1="95.1039" y1="44.7787" x2="74.1329" y2="19.6131" gradientUnits="userSpaceOnUse">
<stop stop-color="#FFCE47"/>
<stop offset="1" stop-color="#FF9356"/>
</linearGradient>
<linearGradient id="paint12_linear_1671_281" x1="93.3402" y1="60.3828" x2="79.3298" y2="43.57" gradientUnits="userSpaceOnUse">
<stop stop-color="#FF9356"/>
<stop offset="1" stop-color="#FF755C"/>
</linearGradient>
<linearGradient id="paint13_linear_1671_281" x1="39.2646" y1="66.5271" x2="13.3971" y2="35.4858" gradientUnits="userSpaceOnUse">
<stop stop-color="#7ACBFF"/>
<stop offset="1" stop-color="#45A2E0"/>
</linearGradient>
<linearGradient id="paint14_linear_1671_281" x1="73.7726" y1="78.2091" x2="54.9185" y2="55.5841" gradientUnits="userSpaceOnUse">
<stop stop-color="#FF755C"/>
<stop offset="1" stop-color="#FF4181"/>
</linearGradient>
<linearGradient id="paint15_linear_1671_281" x1="54.9191" y1="79.5701" x2="31.9091" y2="51.9583" gradientUnits="userSpaceOnUse">
<stop stop-color="#FF4181"/>
<stop offset="1" stop-color="#843561"/>
</linearGradient>
<linearGradient id="paint16_linear_1671_281" x1="79.4574" y1="78.284" x2="50.9142" y2="44.0324" gradientUnits="userSpaceOnUse">
<stop stop-color="#843561" stop-opacity="0"/>
<stop offset="1" stop-color="#3A2F4D"/>
</linearGradient>
<linearGradient id="paint17_linear_1671_281" x1="47.7512" y1="39.459" x2="63.1699" y2="57.9615" gradientUnits="userSpaceOnUse">
<stop stop-color="#EDF5FF"/>
<stop offset="1" stop-color="#C7E9FF"/>
</linearGradient>
<linearGradient id="paint18_linear_1671_281" x1="26.749" y1="65.3238" x2="30.1216" y2="69.371" gradientUnits="userSpaceOnUse">
<stop stop-color="#DFDFDF"/>
<stop offset="1" stop-color="#9DA6AC"/>
</linearGradient>
<linearGradient id="paint19_linear_1671_281" x1="54.4766" y1="30.654" x2="54.4767" y2="66.2036" gradientUnits="userSpaceOnUse">
<stop stop-color="#DFDFDF"/>
<stop offset="1" stop-color="#9DA6AC"/>
</linearGradient>
<linearGradient id="paint20_linear_1671_281" x1="54.5977" y1="57.0104" x2="54.5977" y2="26.5363" gradientUnits="userSpaceOnUse">
<stop stop-color="#DFDFDF"/>
<stop offset="1" stop-color="#9DA6AC"/>
</linearGradient>
<linearGradient id="paint21_linear_1671_281" x1="12.313" y1="75.0067" x2="16.5276" y2="80.0643" gradientUnits="userSpaceOnUse">
<stop stop-color="#9DA6AC"/>
<stop offset="1" stop-color="#5A7587"/>
</linearGradient>
</defs>
</svg>
