<svg width="109" height="90" viewBox="0 0 109 90" fill="none" xmlns="http://www.w3.org/2000/svg">
<path d="M90.4289 14.9739L70.4143 31.6527C66.3153 28.2369 60.6532 26.1238 54.4001 26.1238V2.5376C68.4694 2.5376 81.2092 7.28891 90.4289 14.9739Z" fill="url(#paint0_linear_1671_347)"/>
<path d="M38.3862 31.6512C34.2872 35.067 31.7515 39.7855 31.7515 44.9963H3.44804C3.44804 33.2719 9.14961 22.6554 18.3716 14.9724L38.3862 31.6512Z" fill="url(#paint1_linear_1671_347)"/>
<path d="M54.4001 2.5376V26.1238C48.1471 26.1238 42.4849 28.2369 38.386 31.6527L18.3714 14.9739C27.5911 7.28891 40.3309 2.5376 54.4001 2.5376Z" fill="url(#paint2_linear_1671_347)"/>
<path d="M105.353 44.9963H77.0492C77.0492 39.7855 74.5135 35.067 70.4146 31.6512L90.4292 14.9724C99.6511 22.6554 105.353 33.2719 105.353 44.9963Z" fill="url(#paint3_linear_1671_347)"/>
<path d="M105.353 44.9961C105.353 56.7205 99.6511 67.337 90.4292 75.02L70.4146 58.3412C74.5135 54.9254 77.0492 50.2069 77.0492 44.9961H105.353Z" fill="url(#paint4_linear_1671_347)"/>
<path d="M38.3862 58.3412L18.3716 75.02C9.14961 67.337 3.44804 56.7205 3.44804 44.9961H31.7515C31.7515 50.2069 34.2872 54.9254 38.3862 58.3412Z" fill="url(#paint5_linear_1671_347)"/>
<path d="M90.4289 75.0235C81.2092 82.7085 68.4694 87.4598 54.4001 87.4598V63.8736C60.6532 63.8736 66.3153 61.7605 70.4143 58.3447L90.4289 75.0235Z" fill="url(#paint6_linear_1671_347)"/>
<path d="M54.4001 63.8736V87.4598C40.3309 87.4598 27.5911 82.7085 18.3714 75.0235L38.386 58.3447C42.4849 61.7605 48.1471 63.8736 54.4001 63.8736Z" fill="url(#paint7_linear_1671_347)"/>
<path d="M81.7309 22.223L70.414 31.6537C66.315 28.238 60.6529 26.1249 54.3998 26.1249V12.79C65.0743 12.79 74.7344 16.3946 81.7309 22.223Z" fill="url(#paint8_linear_1671_347)"/>
<path d="M38.3861 31.6534C34.2872 35.0692 31.7515 39.7877 31.7515 44.9985H15.7496C15.7496 36.1032 20.0749 28.0531 27.0691 22.2227L38.3861 31.6534Z" fill="url(#paint9_linear_1671_347)"/>
<path d="M54.4002 12.79V26.1249C48.1472 26.1249 42.485 28.238 38.3861 31.6537L27.0692 22.223C34.0657 16.3946 43.7258 12.79 54.4002 12.79Z" fill="url(#paint10_linear_1671_347)"/>
<path d="M93.0508 44.9985H77.0489C77.0489 39.7877 74.5132 35.0692 70.4143 31.6534L81.7313 22.2227C88.7252 28.0531 93.0508 36.1032 93.0508 44.9985Z" fill="url(#paint11_linear_1671_347)"/>
<path d="M93.0508 45.0005C93.0508 53.8959 88.7252 61.946 81.7313 67.7764L70.4143 58.3456C74.5132 54.9298 77.0489 50.2113 77.0489 45.0005H93.0508Z" fill="url(#paint12_linear_1671_347)"/>
<path d="M38.3861 58.3456L27.0691 67.7764C20.0752 61.946 15.7496 53.8959 15.7496 45.0005H31.7515C31.7515 50.2113 34.2872 54.9298 38.3861 58.3456Z" fill="url(#paint13_linear_1671_347)"/>
<path d="M81.7309 67.7765C74.7344 73.6048 65.0743 77.2094 54.3998 77.2094V63.8745C60.6529 63.8745 66.315 61.7615 70.414 58.3457L81.7309 67.7765Z" fill="url(#paint14_linear_1671_347)"/>
<path d="M54.4002 63.8745V77.2094C43.7258 77.2094 34.0657 73.6048 27.0692 67.7765L38.3861 58.3457C42.485 61.7615 48.1472 63.8745 54.4002 63.8745Z" fill="url(#paint15_linear_1671_347)"/>
<path d="M96.3125 20.8506L75.5223 38.1758C76.5074 40.2919 77.0489 42.592 77.0489 44.9977C77.0489 50.2085 74.5132 54.927 70.4143 58.3428C66.3153 61.7585 60.6531 63.8716 54.4001 63.8716C51.5134 63.8716 48.753 63.4204 46.2139 62.5994L25.4236 79.9247C33.6507 84.6737 43.6353 87.4579 54.4004 87.4579C68.4696 87.4579 81.2094 82.7066 90.429 75.0216C99.651 67.3387 105.353 56.7221 105.353 44.9977C105.352 36.0269 102.011 27.7065 96.3125 20.8506Z" fill="url(#paint16_linear_1671_347)"/>
<path d="M11.3937 62.565L0.511874 87.9319C-0.0145746 89.1592 1.40764 90.3446 2.88047 89.9059L33.3207 80.8377C39.3939 75.7767 17.4667 57.5042 11.3937 62.565Z" fill="url(#paint17_linear_1671_347)"/>
<path d="M70.0676 50.2165L33.32 80.8364C32.7196 79.9694 31.8073 79.2023 30.6386 78.6587C29.0419 77.9218 26.5448 78.3252 24.8159 78.7622C24.4396 78.8555 24.0955 78.6921 23.9555 78.442C23.8674 78.292 23.8515 78.1085 23.9475 77.9285C23.9515 77.9285 23.9515 77.9252 23.9515 77.9252C24.0476 77.7418 24.1317 77.5549 24.2037 77.3682C24.2357 77.2782 24.2676 77.1882 24.2998 77.098C24.3039 77.0913 24.3039 77.088 24.3039 77.0815C24.396 76.7913 24.4599 76.5012 24.4959 76.2044C24.508 76.1077 24.516 76.0076 24.5239 75.9109C24.5338 75.7498 24.5357 75.5887 24.5294 75.4276C24.4856 74.3001 24.0436 73.1804 23.2031 72.2292C22.999 71.9957 22.7709 71.7757 22.5189 71.5655C22.2667 71.3553 22.0026 71.1653 21.7224 70.9951C20.4178 70.1948 18.849 69.828 17.3044 69.8947C17.1883 69.9014 17.0683 69.9081 16.9522 69.918C16.596 69.948 16.2439 70.0012 15.8997 70.078C15.8917 70.078 15.8877 70.078 15.8796 70.0814C15.7716 70.108 15.6634 70.1347 15.5554 70.1615C15.4394 70.1915 15.3273 70.2248 15.2153 70.2615C15.1073 70.2949 14.9991 70.3316 14.8911 70.3717C14.8871 70.3717 14.8871 70.3717 14.8831 70.375C14.6668 70.4551 14.4468 70.4417 14.2668 70.3683C13.9667 70.2517 13.7707 69.9647 13.8827 69.6513C14.407 68.2106 14.8911 66.133 14.0068 64.8024C13.3543 63.8253 12.438 63.0649 11.3936 62.5648L48.1374 31.9417C49.7941 30.5644 52.4754 30.5644 54.1283 31.9417L57.2537 34.5462L66.9422 42.62L70.0676 45.2245C71.7202 46.6015 71.7202 48.8358 70.0676 50.2165Z" fill="url(#paint18_linear_1671_347)"/>
<path d="M66.9424 42.6179L23.9558 78.4401C23.8677 78.2901 23.8518 78.1066 23.9477 77.9266C23.9518 77.9266 23.9518 77.9232 23.9518 77.9232C24.0479 77.7399 24.464 76.4959 24.496 76.2024C24.5121 76.1024 24.5199 76.0057 24.5239 75.909C24.604 74.6218 24.1637 73.3145 23.2034 72.2272C22.9992 71.9938 22.7712 71.7737 22.5192 71.5635C22.2669 71.3534 22.0029 71.1633 21.7227 70.9932C20.418 70.1929 18.8493 69.826 17.3047 69.8927C17.1886 69.8961 17.0726 69.9028 16.9525 69.916C16.6003 69.9426 16.2482 69.9961 15.9 70.0761C15.892 70.0761 15.8879 70.0761 15.8799 70.0794C15.7719 70.1027 14.9996 70.3295 14.8914 70.3695C14.8874 70.3695 14.8873 70.3695 14.8833 70.3729C14.6671 70.453 14.4471 70.4396 14.2671 70.3662L57.2538 34.5439L66.9424 42.6179Z" fill="url(#paint19_linear_1671_347)"/>
<path d="M6.65625 84.7845C5.50424 83.8245 4.21671 83.0542 2.85485 82.469L0.511874 87.931C-0.0145746 89.1583 1.40764 90.3437 2.88047 89.9048L9.43482 87.9523C8.73261 86.8172 7.80825 85.7443 6.65625 84.7845Z" fill="url(#paint20_linear_1671_347)"/>
<path d="M104.973 2.85649L60.6008 39.8334L54.11 34.4244C52.6952 33.2453 52.6952 31.3336 54.11 30.1546L57.9921 26.9196C59.6678 25.5232 60.6091 23.6293 60.6091 21.6545V17.6231C60.6091 14.4514 63.02 11.6278 66.616 10.5884L102.901 0.100011C104.91 -0.480756 106.476 1.60355 104.973 2.85649Z" fill="url(#paint21_linear_1671_347)"/>
<path d="M104.973 2.85426L60.6003 39.8312L67.0911 45.2402C68.5059 46.4192 70.8 46.4192 72.2148 45.2402L76.0969 42.0051C77.7726 40.6087 80.0452 39.8243 82.4149 39.8243H87.2525C91.0585 39.8243 94.4468 37.8151 95.6941 34.8185L108.28 4.58085C108.977 2.90702 106.476 1.60131 104.973 2.85426Z" fill="url(#paint22_linear_1671_347)"/>
<path d="M84.0671 22.0137L106.355 3.44049C106.91 2.97813 106.976 2.22549 106.458 1.73419C105.89 1.19578 104.905 1.17601 104.307 1.67454L82.0356 20.2342C80.5774 21.4494 78.5568 22.1147 76.5024 21.9634C74.6022 21.8237 72.6388 22.4231 71.2841 23.7626C69.3644 25.6605 69.3949 28.4915 71.351 30.3635C73.6995 32.611 77.795 32.6991 80.2805 30.6278C81.5822 29.543 82.1726 28.0905 82.0528 26.6719C81.9062 24.9433 82.5968 23.239 84.0671 22.0137Z" fill="url(#paint23_linear_1671_347)"/>
<path d="M60.2321 23.7903C59.8111 24.9612 59.0475 26.0391 57.9916 26.9191L54.1096 30.1542C52.6948 31.3332 52.6948 33.2449 54.1096 34.4239L60.6004 39.8329L67.0912 45.242C68.506 46.421 70.8001 46.421 72.2149 45.242L76.097 42.0069C77.153 41.1268 78.4465 40.4905 79.8516 40.1398L60.2321 23.7903Z" fill="url(#paint24_linear_1671_347)"/>
<path d="M64.634 54.7488L42.7038 36.4734L51.4436 29.1903C52.4558 28.3467 54.0968 28.3467 55.1088 29.1903L73.3738 44.4111C74.386 45.2546 74.386 46.6221 73.3738 47.4654L64.634 54.7488Z" fill="url(#paint25_linear_1671_347)"/>
<defs>
<linearGradient id="paint0_linear_1671_347" x1="48.8849" y1="0.940886" x2="76.496" y2="34.0742" gradientUnits="userSpaceOnUse">
<stop stop-color="#FFF5D9"/>
<stop offset="1" stop-color="#FFCE47"/>
</linearGradient>
<linearGradient id="paint1_linear_1671_347" x1="9.94183" y1="29.1776" x2="22.3008" y2="44.0084" gradientUnits="userSpaceOnUse">
<stop stop-color="#6FA953"/>
<stop offset="1" stop-color="#43765A"/>
</linearGradient>
<linearGradient id="paint2_linear_1671_347" x1="34.5317" y1="7.21055" x2="50.7733" y2="26.7008" gradientUnits="userSpaceOnUse">
<stop stop-color="#E4E08E"/>
<stop offset="1" stop-color="#6FA953"/>
</linearGradient>
<linearGradient id="paint3_linear_1671_347" x1="70.6708" y1="19.0941" x2="97.0318" y2="50.7274" gradientUnits="userSpaceOnUse">
<stop stop-color="#FFCE47"/>
<stop offset="1" stop-color="#FF9356"/>
</linearGradient>
<linearGradient id="paint4_linear_1671_347" x1="77.8154" y1="43.2783" x2="93.0974" y2="61.6169" gradientUnits="userSpaceOnUse">
<stop stop-color="#FF9356"/>
<stop offset="1" stop-color="#FF755C"/>
</linearGradient>
<linearGradient id="paint5_linear_1671_347" x1="7.25537" y1="45.1696" x2="25.2376" y2="66.7482" gradientUnits="userSpaceOnUse">
<stop stop-color="#7ACBFF"/>
<stop offset="1" stop-color="#45A2E0"/>
</linearGradient>
<linearGradient id="paint6_linear_1671_347" x1="54.3644" y1="66.2" x2="69.4501" y2="84.3026" gradientUnits="userSpaceOnUse">
<stop stop-color="#FF755C"/>
<stop offset="1" stop-color="#FF4181"/>
</linearGradient>
<linearGradient id="paint7_linear_1671_347" x1="22.9483" y1="58.2505" x2="59.4266" y2="102.025" gradientUnits="userSpaceOnUse">
<stop stop-color="#FF4181"/>
<stop offset="1" stop-color="#843561"/>
</linearGradient>
<linearGradient id="paint8_linear_1671_347" x1="74.7448" y1="29.7401" x2="57.7513" y2="9.34792" gradientUnits="userSpaceOnUse">
<stop stop-color="#FFF5D9"/>
<stop offset="1" stop-color="#FFCE47"/>
</linearGradient>
<linearGradient id="paint9_linear_1671_347" x1="33.7825" y1="43.9215" x2="12.7206" y2="18.6472" gradientUnits="userSpaceOnUse">
<stop stop-color="#6FA953"/>
<stop offset="1" stop-color="#43765A"/>
</linearGradient>
<linearGradient id="paint10_linear_1671_347" x1="51.7538" y1="26.6891" x2="33.0098" y2="4.19627" gradientUnits="userSpaceOnUse">
<stop stop-color="#E4E08E"/>
<stop offset="1" stop-color="#6FA953"/>
</linearGradient>
<linearGradient id="paint11_linear_1671_347" x1="92.807" y1="44.7914" x2="73.0195" y2="21.0463" gradientUnits="userSpaceOnUse">
<stop stop-color="#FFCE47"/>
<stop offset="1" stop-color="#FF9356"/>
</linearGradient>
<linearGradient id="paint12_linear_1671_347" x1="91.1428" y1="59.5149" x2="77.923" y2="43.6512" gradientUnits="userSpaceOnUse">
<stop stop-color="#FF9356"/>
<stop offset="1" stop-color="#FF755C"/>
</linearGradient>
<linearGradient id="paint13_linear_1671_347" x1="40.1192" y1="65.3125" x2="15.7116" y2="36.0235" gradientUnits="userSpaceOnUse">
<stop stop-color="#7ACBFF"/>
<stop offset="1" stop-color="#45A2E0"/>
</linearGradient>
<linearGradient id="paint14_linear_1671_347" x1="72.6788" y1="76.3375" x2="54.8888" y2="54.9894" gradientUnits="userSpaceOnUse">
<stop stop-color="#FF755C"/>
<stop offset="1" stop-color="#FF4181"/>
</linearGradient>
<linearGradient id="paint15_linear_1671_347" x1="54.89" y1="77.6216" x2="33.1789" y2="51.5683" gradientUnits="userSpaceOnUse">
<stop stop-color="#FF4181"/>
<stop offset="1" stop-color="#843561"/>
</linearGradient>
<linearGradient id="paint16_linear_1671_347" x1="76.2761" y1="63.2278" x2="63.6586" y2="48.0868" gradientUnits="userSpaceOnUse">
<stop stop-color="#843561" stop-opacity="0"/>
<stop offset="1" stop-color="#3A2F4D"/>
</linearGradient>
<linearGradient id="paint17_linear_1671_347" x1="2.99283" y1="69.5606" x2="20.9633" y2="91.1252" gradientUnits="userSpaceOnUse">
<stop stop-color="#FFE0EA"/>
<stop offset="1" stop-color="#FFC0D5"/>
</linearGradient>
<linearGradient id="paint18_linear_1671_347" x1="11.3936" y1="55.8724" x2="71.3071" y2="55.8724" gradientUnits="userSpaceOnUse">
<stop stop-color="#FFCE47"/>
<stop offset="1" stop-color="#FF9356"/>
</linearGradient>
<linearGradient id="paint19_linear_1671_347" x1="49.7028" y1="64.0739" x2="31.5589" y2="42.3012" gradientUnits="userSpaceOnUse">
<stop stop-color="#FFCE47"/>
<stop offset="1" stop-color="#FF9356"/>
</linearGradient>
<linearGradient id="paint20_linear_1671_347" x1="3.16644" y1="86.5817" x2="7.75174" y2="92.0841" gradientUnits="userSpaceOnUse">
<stop stop-color="#2F73A0"/>
<stop offset="1" stop-color="#174461"/>
</linearGradient>
<linearGradient id="paint21_linear_1671_347" x1="78.3185" y1="15.7958" x2="80.5039" y2="20.1041" gradientUnits="userSpaceOnUse">
<stop stop-color="#EDF5FF"/>
<stop offset="1" stop-color="#C7E9FF"/>
</linearGradient>
<linearGradient id="paint22_linear_1671_347" x1="85.65" y1="23.3987" x2="88.5842" y2="29.6995" gradientUnits="userSpaceOnUse">
<stop stop-color="#EDF5FF"/>
<stop offset="1" stop-color="#C7E9FF"/>
</linearGradient>
<linearGradient id="paint23_linear_1671_347" x1="93.053" y1="19.4927" x2="87.5383" y2="12.8749" gradientUnits="userSpaceOnUse">
<stop stop-color="#2F73A0"/>
<stop offset="1" stop-color="#174461"/>
</linearGradient>
<linearGradient id="paint24_linear_1671_347" x1="67.5613" y1="34.0291" x2="64.5485" y2="37.6444" gradientUnits="userSpaceOnUse">
<stop stop-color="#7ACBFF" stop-opacity="0"/>
<stop offset="1" stop-color="#2F73A0"/>
</linearGradient>
<linearGradient id="paint25_linear_1671_347" x1="60.6729" y1="38.5018" x2="56.3285" y2="46.8749" gradientUnits="userSpaceOnUse">
<stop stop-color="#2F73A0"/>
<stop offset="1" stop-color="#174461"/>
</linearGradient>
</defs>
</svg>
