<svg width="40" height="29" viewBox="0 0 40 29" fill="none" xmlns="http://www.w3.org/2000/svg">
<path d="M37.5008 2.40475H25.3885C24.971 2.40527 24.5613 2.51849 24.2028 2.73246C23.8443 2.94642 23.5501 3.2532 23.3515 3.62042C23.1929 2.93122 22.8798 2.28707 22.4358 1.73664C21.9918 1.18621 21.4284 0.743896 20.7884 0.443116C20.1483 0.142336 19.4483 -0.0090437 18.7412 0.000417716C18.034 0.00987913 17.3383 0.179933 16.7065 0.49773C16.0747 0.815527 15.5235 1.27275 15.0943 1.83487C14.6652 2.39698 14.3694 3.04928 14.2294 3.74247C14.0893 4.43566 14.1086 5.15162 14.2859 5.83625C14.4631 6.52088 14.7936 7.15627 15.2525 7.69442C14.9725 7.75275 13.3508 8.12608 12.7185 8.27308C12.4246 8.35368 12.1739 8.54606 12.02 8.8091C11.8661 9.07214 11.8213 9.38494 11.895 9.68062C11.9688 9.9763 12.1553 10.2314 12.4147 10.3913C12.6741 10.5512 12.9858 10.6033 13.2831 10.5364C15.314 9.95346 17.4036 9.59893 19.5131 9.47941C17.7698 10.9437 15.5645 11.7438 13.2878 11.7381C10.2801 11.7399 7.35916 12.7462 4.98855 14.5973C2.61794 16.4484 0.933466 19.0382 0.202466 21.9557C0.139466 22.2101 0.181467 23.2321 0.167467 24.5714C0.167467 25.031 0.257996 25.4862 0.433888 25.9108C0.609779 26.3354 0.867587 26.7213 1.19259 27.0463C1.5176 27.3713 1.90344 27.6291 2.32807 27.805C2.75271 27.9809 3.20784 28.0714 3.66747 28.0714H23.7015C24.6285 28.0684 25.5171 27.7004 26.1748 27.0471L27.0008 26.2211L27.8268 27.0471C28.4845 27.7004 29.3731 28.0684 30.3001 28.0714H36.3341C37.2624 28.0714 38.1526 27.7027 38.809 27.0463C39.4654 26.3899 39.8341 25.4997 39.8341 24.5714V4.73808C39.8341 4.11924 39.5883 3.52575 39.1507 3.08817C38.7131 2.65058 38.1196 2.40475 37.5008 2.40475ZM18.8341 7.07142C18.3726 7.07142 17.9215 6.93457 17.5378 6.67818C17.1541 6.42179 16.855 6.05737 16.6784 5.63101C16.5018 5.20465 16.4556 4.73549 16.5456 4.28287C16.6357 3.83025 16.8579 3.41449 17.1842 3.08817C17.5105 2.76184 17.9263 2.53962 18.3789 2.44958C18.8315 2.35955 19.3007 2.40576 19.7271 2.58236C20.1534 2.75897 20.5178 3.05804 20.7742 3.44175C21.0306 3.82547 21.1675 4.27659 21.1675 4.73808V7.07142H18.8341ZM13.2878 14.0714C14.4548 14.0696 15.6155 13.8998 16.7341 13.5674C17.1328 14.0349 17.5582 14.479 18.0081 14.8974C18.2272 15.1165 18.5243 15.2396 18.8341 15.2396C19.1439 15.2396 19.4411 15.1165 19.6601 14.8974C19.8792 14.6783 20.0023 14.3812 20.0023 14.0714C20.0023 13.7616 19.8792 13.4645 19.6601 13.2454L19.0161 12.6014C19.3078 12.4427 19.5995 12.2817 19.8771 12.0974L21.5105 13.7307C21.7295 13.9498 22.0267 14.0729 22.3365 14.0729C22.6463 14.0729 22.9434 13.9498 23.1625 13.7307C23.3815 13.5117 23.5046 13.2146 23.5046 12.9047C23.5046 12.5949 23.3815 12.2978 23.1625 12.0787L21.6995 10.6181C21.9328 10.3847 22.1661 10.1514 22.3668 9.91808L23.8438 11.3974C23.9523 11.5059 24.0811 11.5919 24.2228 11.6506C24.3645 11.7093 24.5164 11.7396 24.6698 11.7396C24.8232 11.7396 24.9751 11.7093 25.1168 11.6506C25.2586 11.5919 25.3873 11.5059 25.4958 11.3974C25.6043 11.2889 25.6903 11.1602 25.749 11.0184C25.8077 10.8767 25.8379 10.7248 25.8379 10.5714C25.8379 10.418 25.8077 10.2661 25.749 10.1244C25.6903 9.98266 25.6043 9.85389 25.4958 9.74541L23.7225 7.97442C24.4855 6.62808 24.6021 6.27575 25.3908 4.73808H37.5008V21.0714H2.9348C3.76237 19.003 5.1913 17.2302 7.03689 15.9824C8.88249 14.7345 11.0599 14.0688 13.2878 14.0714ZM36.3341 25.7381H30.3001C29.5628 25.7381 29.2991 25.1337 28.6505 24.5714C28.2057 24.1477 27.615 23.9114 27.0008 23.9114C26.3866 23.9114 25.7959 24.1477 25.3511 24.5714C24.7001 25.1361 24.4365 25.7381 23.7015 25.7381H3.66747C3.35805 25.7381 3.0613 25.6152 2.84251 25.3964C2.62372 25.1776 2.5008 24.8808 2.5008 24.5714V23.4047H37.5008V24.5714C37.5008 24.8808 37.3779 25.1776 37.1591 25.3964C36.9403 25.6152 36.6436 25.7381 36.3341 25.7381Z" fill="#393D46"/>
</svg>
