<svg width="28" height="40" viewBox="0 0 28 40" fill="none" xmlns="http://www.w3.org/2000/svg">
<path d="M4.14013e-05 31.1838C0.0726626 33.7795 0.807591 36.3136 2.13504 38.5454C2.32901 38.9325 2.62685 39.258 2.99525 39.4855C3.36365 39.7129 3.78808 39.8334 4.22104 39.8334H14.2544C14.7753 39.8338 15.2813 39.6599 15.6919 39.3394C16.1025 39.0188 16.394 38.5702 16.52 38.0648L17.5 34.1448L18.48 38.0648C18.6061 38.5702 18.8976 39.0188 19.3082 39.3394C19.7188 39.6599 20.2248 39.8338 20.7457 39.8334H23.779C24.2129 39.8334 24.6382 39.7124 25.007 39.4841C25.3759 39.2557 25.6739 38.9291 25.8674 38.5408C27.1955 36.3111 27.9298 33.7781 28 31.1838C28 24.3191 23.3334 22.1724 23.3334 19.5404C23.3334 16.2738 28 15.7161 28 11.1264C28 6.15875 23.3334 6.66275 23.3334 3.57575V2.50008C23.3334 1.88124 23.0875 1.28775 22.65 0.850166C22.2124 0.412581 21.6189 0.166748 21 0.166748H18.6667C18.0479 0.166748 17.4544 0.412581 17.0168 0.850166C16.5792 1.28775 16.3334 1.88124 16.3334 2.50008V3.90008C16.3338 4.35486 16.2217 4.80269 16.0072 5.20369C15.7927 5.60468 15.4823 5.9464 15.1037 6.19842C14.6894 6.47423 14.3176 6.8091 14 7.19242C13.6825 6.8091 13.3107 6.47423 12.8964 6.19842C12.5178 5.9464 12.2074 5.60468 11.9929 5.20369C11.7783 4.80269 11.6663 4.35486 11.6667 3.90008V2.50008C11.6667 1.88124 11.4209 1.28775 10.9833 0.850166C10.5457 0.412581 9.95221 0.166748 9.33337 0.166748H7.00004C6.3812 0.166748 5.78771 0.412581 5.35013 0.850166C4.91254 1.28775 4.66671 1.88124 4.66671 2.50008V3.57575C4.66826 4.0878 4.52663 4.59009 4.2578 5.0259C3.98898 5.46171 3.60367 5.81368 3.14537 6.04208C2.1976 6.51188 1.40049 7.23795 0.844524 8.13789C0.288558 9.03783 -0.00400447 10.0756 4.14013e-05 11.1334C4.14013e-05 15.6694 4.66671 16.3274 4.66671 19.5871C4.66671 22.0791 4.14013e-05 24.3728 4.14013e-05 31.1838ZM2.33337 11.1171C2.33337 7.44442 7.00004 8.41975 7.00004 3.56641V2.50008H9.33337V3.90008C9.33212 4.73932 9.53883 5.56579 9.93501 6.30562C10.3312 7.04546 10.9045 7.67561 11.6037 8.13975C11.9816 8.39133 12.2916 8.7323 12.5061 9.13242C12.7206 9.53254 12.833 9.97942 12.8334 10.4334C12.8334 10.7428 12.9563 11.0396 13.1751 11.2584C13.3939 11.4772 13.6906 11.6001 14 11.6001C14.3095 11.6001 14.6062 11.4772 14.825 11.2584C15.0438 11.0396 15.1667 10.7428 15.1667 10.4334C15.1663 9.97863 15.2783 9.53081 15.4929 9.12981C15.7074 8.72882 16.0178 8.3871 16.3964 8.13508C17.0949 7.67138 17.6678 7.04197 18.064 6.30301C18.4601 5.56405 18.6672 4.73853 18.6667 3.90008V2.50008H21V3.57575C21 8.47575 25.6667 7.42108 25.6667 11.1264C25.6667 14.4211 21 14.9484 21 19.5801C21 23.6751 25.6667 24.7624 25.6667 31.1838C25.5869 33.4155 24.9379 35.5898 23.7814 37.5001H20.748L18.634 29.0511C18.5467 28.8217 18.3917 28.6243 18.1896 28.485C17.9875 28.3458 17.7478 28.2712 17.5024 28.2712C17.2569 28.2712 17.0173 28.3458 16.8152 28.485C16.6131 28.6243 16.4581 28.8217 16.3707 29.0511L14.2544 37.5001H4.22104C3.06413 35.5898 2.41437 33.4156 2.33337 31.1838C2.33337 24.8278 7.00004 23.6961 7.00004 19.5404C7.00004 14.9111 2.33337 14.4584 2.33337 11.1334V11.1171Z" fill="white"/>
</svg>
