<svg width="26" height="40" viewBox="0 0 26 40" fill="none" xmlns="http://www.w3.org/2000/svg">
<path d="M21.1665 0.166752H4.69314C4.09857 0.165609 3.52599 0.391485 3.09233 0.798252C2.65868 1.20502 2.39667 1.76199 2.35981 2.35542L0.171139 37.3554C0.15103 37.674 0.196493 37.9933 0.304716 38.2936C0.412939 38.5938 0.581621 38.8687 0.800328 39.1012C1.01904 39.3337 1.28312 39.5188 1.57624 39.6452C1.86936 39.7715 2.18528 39.8364 2.50447 39.8358H7.27614C7.82845 39.8355 8.36277 39.6393 8.78404 39.2821C9.20531 38.925 9.48622 38.4299 9.5768 37.8851L12.9298 17.7648L16.2828 37.8851C16.3739 38.4295 16.655 38.924 17.0762 39.2807C17.4975 39.6374 18.0315 39.8333 18.5835 39.8334H23.3551C23.6741 39.834 23.9898 39.7692 24.2828 39.643C24.5757 39.5168 24.8397 39.3319 25.0584 39.0997C25.2771 38.8674 25.4458 38.5928 25.5542 38.2928C25.6625 37.9928 25.7082 37.6738 25.6885 37.3554L23.4998 2.35542C23.4629 1.76199 23.2009 1.20502 22.7673 0.798252C22.3336 0.391485 21.761 0.165609 21.1665 0.166752ZM21.1665 2.50009L21.4231 6.60909C20.6295 6.25529 19.9557 5.67866 19.4835 4.94925C19.0113 4.21983 18.761 3.369 18.7631 2.50009H21.1665ZM7.09647 2.50009C7.09827 3.36894 6.8479 4.21964 6.37574 4.949C5.90358 5.67836 5.22992 6.25504 4.43647 6.60909L4.69314 2.50009H7.09647ZM18.5835 37.5001L14.0801 10.4754C14.0342 10.2036 13.8934 9.95682 13.6828 9.77887C13.4723 9.60092 13.2055 9.50329 12.9298 9.50329C12.6541 9.50329 12.3873 9.60092 12.1768 9.77887C11.9662 9.95682 11.8254 10.2036 11.7795 10.4754L7.27614 37.5001H2.50447L4.26847 9.30175C5.71623 8.82385 6.9848 7.91772 7.90641 6.70321C8.82802 5.48871 9.35924 4.02305 9.4298 2.50009H11.7631V6.00009C11.7631 6.3095 11.8861 6.60625 12.1048 6.82504C12.3236 7.04384 12.6204 7.16675 12.9298 7.16675C13.2392 7.16675 13.536 7.04384 13.7548 6.82504C13.9736 6.60625 14.0965 6.3095 14.0965 6.00009V2.50009H16.4298C16.5004 4.02305 17.0316 5.48871 17.9532 6.70321C18.8748 7.91772 20.1434 8.82385 21.5911 9.30175L23.3551 37.5001H18.5835Z" fill="white"/>
</svg>
