<svg width="40" height="36" viewBox="0 0 40 36" fill="none" xmlns="http://www.w3.org/2000/svg">
<path d="M11.9332 35.5H28.2665C28.8853 35.5 29.4788 35.2542 29.9164 34.8166C30.354 34.379 30.5998 33.7855 30.5998 33.1667V13.8163L32.4502 15.6667C32.8944 16.0914 33.4853 16.3285 34.0998 16.3285C34.7144 16.3285 35.3053 16.0914 35.7495 15.6667L38.7665 12.6497C39.2039 12.2121 39.4497 11.6187 39.4497 11C39.4497 10.3813 39.2039 9.78791 38.7665 9.35034L30.9405 1.52434C30.6164 1.19863 30.2309 0.940396 29.8064 0.764575C29.3818 0.588753 28.9267 0.498832 28.4672 0.500011H11.7325C11.273 0.498832 10.8178 0.588753 10.3933 0.764575C9.96876 0.940396 9.58329 1.19863 9.25917 1.52434L1.43317 9.35034C0.995736 9.78791 0.75 10.3813 0.75 11C0.75 11.6187 0.995736 12.2121 1.43317 12.6497L4.45017 15.6667C4.89436 16.0914 5.48526 16.3285 6.09984 16.3285C6.71441 16.3285 7.30531 16.0914 7.7495 15.6667L9.59984 13.8163V33.1667C9.59984 33.7855 9.84567 34.379 10.2833 34.8166C10.7208 35.2542 11.3143 35.5 11.9332 35.5ZM23.3852 2.83334C23.1476 3.51531 22.7037 4.10644 22.115 4.52474C21.5263 4.94304 20.822 5.16778 20.0998 5.16778C19.3777 5.16778 18.6734 4.94304 18.0847 4.52474C17.496 4.10644 17.0521 3.51531 16.8145 2.83334H23.3852ZM6.09984 14.017L3.08283 11L10.9088 3.17401C11.1275 2.95592 11.4237 2.83341 11.7325 2.83334H14.3855C14.6533 4.15201 15.3687 5.33756 16.4105 6.18912C17.4524 7.04067 18.7566 7.50586 20.1022 7.50586C21.4478 7.50586 22.752 7.04067 23.7938 6.18912C24.8357 5.33756 25.5511 4.15201 25.8188 2.83334H28.4718C28.7807 2.83341 29.0769 2.95592 29.2955 3.17401L37.1168 11L34.0998 14.017L30.2592 10.174C30.096 10.0104 29.8879 9.89897 29.6614 9.85379C29.4348 9.8086 29.1999 9.8317 28.9864 9.92018C28.773 10.0087 28.5906 10.1585 28.4625 10.3508C28.3343 10.543 28.2661 10.769 28.2665 11V33.1667H11.9332V11C11.9336 10.769 11.8654 10.543 11.7372 10.3508C11.6091 10.1585 11.4267 10.0087 11.2133 9.92018C10.9998 9.8317 10.7649 9.8086 10.5383 9.85379C10.3117 9.89897 10.1037 10.0104 9.9405 10.174L6.09984 14.017Z" fill="white"/>
</svg>
