<svg width="40" height="34" viewBox="0 0 40 34" fill="none" xmlns="http://www.w3.org/2000/svg">
<path d="M19.8333 0.666748C8.71033 0.666748 0 5.80008 0 12.3334V21.6668C0 26.9938 6.05033 31.5974 14.7443 32.9344C15.2344 33.1929 15.7793 33.3297 16.3333 33.3334H23.3333C23.8873 33.3297 24.4323 33.1929 24.9223 32.9344C33.6163 31.5974 39.6667 26.9938 39.6667 21.6668V12.3334C39.6667 5.80008 30.9563 0.666748 19.8333 0.666748ZM2.33333 21.6668V17.9054C5.3437 20.8315 9.19367 22.743 13.3443 23.3724C13.0132 23.9126 12.8364 24.5332 12.8333 25.1668V29.8334C12.8333 29.9548 12.8567 30.0668 12.8683 30.1881C6.64067 28.7041 2.33333 25.3254 2.33333 21.6668ZM24.5 29.8334C24.4879 30.139 24.3611 30.4287 24.1449 30.645C23.9287 30.8612 23.6389 30.988 23.3333 31.0001H21V28.6668H22.1667C22.4761 28.6668 22.7728 28.5438 22.9916 28.325C23.2104 28.1063 23.3333 27.8095 23.3333 27.5001C23.3333 27.1907 23.2104 26.8939 22.9916 26.6751C22.7728 26.4563 22.4761 26.3334 22.1667 26.3334H21V24.0001H23.3333C23.6428 24.0001 23.9395 24.123 24.1583 24.3418C24.3771 24.5606 24.5 24.8573 24.5 25.1668V29.8334ZM15.1667 29.8334V25.1668C15.1667 24.8573 15.2896 24.5606 15.5084 24.3418C15.7272 24.123 16.0239 24.0001 16.3333 24.0001H18.6667V26.3334C18.3573 26.3334 18.0605 26.4563 17.8417 26.6751C17.6229 26.8939 17.5 27.1907 17.5 27.5001C17.5 27.8095 17.6229 28.1063 17.8417 28.325C18.0605 28.5438 18.3573 28.6668 18.6667 28.6668V31.0001H16.3333C16.0274 30.9891 15.737 30.8626 15.5206 30.6462C15.3041 30.4297 15.1777 30.1393 15.1667 29.8334ZM26.5627 19.6018C26.796 16.7761 23.8327 15.0588 21 14.7321V12.3987C26.4857 12.8771 30.1887 16.5894 26.5627 19.6018ZM15.1667 19.3334C15.1667 18.2321 17.1617 17.0001 19.8333 17.0001C22.372 17.0001 24.2667 18.2321 24.2667 19.3334C24.2667 20.4348 22.372 21.6668 19.8333 21.6668C17.934 21.6668 15.1667 20.7824 15.1667 19.3334ZM18.6667 14.7438C15.3207 15.1054 12.8333 16.9814 12.8333 19.3288C9.56667 16.1788 13.643 12.8374 18.6667 12.4034V14.7438ZM29.8853 18.9438C30.1645 18.3328 30.3169 17.6716 30.3333 17.0001C30.3333 13.0731 25.7203 10.0001 19.8333 10.0001C13.9463 10.0001 9.33333 13.0731 9.33333 17.0001C9.34878 17.674 9.50121 18.3377 9.78134 18.9508C9.00491 18.516 8.34597 17.8987 7.8614 17.1524C7.37683 16.406 7.08119 15.5529 7 14.6667C7 10.8727 12.8777 7.66675 19.8333 7.66675C26.789 7.66675 32.6667 10.8727 32.6667 14.6667C32.5855 15.5529 32.2898 16.406 31.8053 17.1524C31.3207 17.8987 30.6618 18.516 29.8853 18.9508V18.9438ZM37.3333 21.6668C37.3333 25.3254 33.026 28.7041 26.7983 30.1881C26.81 30.0691 26.8333 29.9548 26.8333 29.8334V25.1668C26.8303 24.5332 26.6535 23.9126 26.3223 23.3724C30.473 22.743 34.323 20.8315 37.3333 17.9054V21.6668ZM34.3163 17.4924C34.7622 16.617 34.9964 15.6492 35 14.6667C35 9.43308 28.3383 5.33342 19.8333 5.33342C11.3283 5.33342 4.66667 9.43308 4.66667 14.6667C4.67054 15.6491 4.9047 16.6169 5.35033 17.4924C4.48675 16.9201 3.76579 16.1575 3.24279 15.2632C2.7198 14.3689 2.40869 13.3667 2.33333 12.3334C2.33333 7.27475 10.3483 3.00008 19.8333 3.00008C29.3183 3.00008 37.3333 7.27475 37.3333 12.3334C37.258 13.3667 36.9469 14.3689 36.4239 15.2632C35.9009 16.1575 35.1799 16.9201 34.3163 17.4924Z" fill="white"/>
</svg>